<?xml version="1.0" encoding="UTF-8" standalone="no"?>
<svg
   xmlns:dc="http://purl.org/dc/elements/1.1/"
   xmlns:cc="http://creativecommons.org/ns#"
   xmlns:rdf="http://www.w3.org/1999/02/22-rdf-syntax-ns#"
   xmlns:svg="http://www.w3.org/2000/svg"
   xmlns="http://www.w3.org/2000/svg"
   xmlns:sodipodi="http://sodipodi.sourceforge.net/DTD/sodipodi-0.dtd"
   xmlns:inkscape="http://www.inkscape.org/namespaces/inkscape"
   version="1.1"
   x="0px"
   y="0px"
   viewBox="17 176.375 48 48"
   enable-background="new 17 176.375 48 48"
   xml:space="preserve"
   id="svg30"
   sodipodi:docname="in-logo.svg"
   width="48"
   height="48"
   inkscape:version="0.92.4 (5da689c313, 2019-01-14)"><metadata
     id="metadata36"><rdf:RDF><cc:Work
         rdf:about=""><dc:format>image/svg+xml</dc:format><dc:type
           rdf:resource="http://purl.org/dc/dcmitype/StillImage" /><dc:title></dc:title></cc:Work></rdf:RDF></metadata><defs
     id="defs34" /><sodipodi:namedview
     pagecolor="#ffffff"
     bordercolor="#666666"
     borderopacity="1"
     objecttolerance="10"
     gridtolerance="10"
     guidetolerance="10"
     inkscape:pageopacity="0"
     inkscape:pageshadow="2"
     inkscape:window-width="1366"
     inkscape:window-height="706"
     id="namedview32"
     showgrid="false"
     inkscape:zoom="6.3286057"
     inkscape:cx="24.223464"
     inkscape:cy="12.86034"
     inkscape:window-x="-8"
     inkscape:window-y="-8"
     inkscape:window-maximized="1"
     inkscape:current-layer="svg30" /><path
     d="m 41,203.896 c 1.943,0 3.521,-1.578 3.521,-3.521 0,-1.943 -1.578,-3.521 -3.521,-3.521 -1.944,0 -3.521,1.578 -3.521,3.521 0,1.943 1.577,3.521 3.521,3.521 z m 7.602,-10.312 c 1.061,0 1.918,-0.859 1.918,-1.917 0,-1.06 -0.857,-1.917 -1.918,-1.917 -1.058,0 -1.916,0.857 -1.916,1.917 0,1.058 0.858,1.917 1.916,1.917 z m -0.56,6.791 c 0,3.889 -3.153,7.042 -7.042,7.042 -3.889,0 -7.042,-3.153 -7.042,-7.042 0,-0.818 0.147,-1.602 0.404,-2.334 h -3.404 v 9.545 c 0,1.648 1.349,2.997 2.998,2.997 h 13.589 c 1.648,0 2.997,-1.349 2.997,-2.997 V 195.041 H 45.59 c 1.499,1.292 2.452,3.2 2.452,5.334 z m -7.042,-24 c -13.255,0 -24,10.745 -24,24 0,13.255 10.745,24 24,24 13.255,0 24,-10.745 24,-24 0,-13.255 -10.745,-24 -24,-24 z m 12.814,33.732 c 0,2.199 -1.799,4 -4,4 H 31.685 c -2.2,0 -4,-1.801 -4,-4 v -18.131 c 0,-2.201 1.8,-4 4,-4 h 18.131 c 2.199,0 4,1.799 4,4 v 18.131 z"
     id="path24"
     inkscape:connector-curvature="0"
     style="fill:#000000" /></svg>