<svg height="511pt" viewBox="0 0 511 511.97774" width="511pt" xmlns="http://www.w3.org/2000/svg"><path d="m264.25 122.859375c.882812-.835937 2.277344-.796875 3.109375.085937.386719.410157.601563.949219.601563 1.511719v64.15625h76.800781v-65.300781c0-1.15625.9375-2.097656 2.097656-2.097656.574219 0 1.121094.234375 1.515625.648437l33.5625 34.371094c7.417969 7.597656 19.523438 7.953125 27.375.800781l32.074219-30.347656c4.757812-4.503906 4.964843-12.011719.464843-16.769531-.109374-.117188-.226562-.230469-.339843-.347657-4.515625-4.394531-11.679688-4.496093-16.316407-.222656l-29.746093 27.414063-35.867188-38.113281c-4.050781-4.300782-9.695312-6.738282-15.601562-6.734376h-16.554688c-3.574219.886719-7.191406-1.292968-8.078125-4.867187-.128906-.527344-.195312-1.066406-.195312-1.609375v-4.476562c-7.890625 4.714843-17.730469 4.695312-25.601563-.046876v4.738282c0 3.683594-2.984375 6.671875-6.667969 6.671875-.488281 0-.972656-.054688-1.445312-.160157h-12.539062c-7.660157 0-15.042969 2.863282-20.699219 8.023438l-29.1875 26.597656c-5.703125 5.203125-9.789063 11.941406-11.757813 19.410156l-9.441406 35.835938c-1.515625 5.738281 1.671875 11.671875 7.292969 13.578125 5.910156 2 12.320312-1.164063 14.320312-7.074219.050781-.144531.097657-.292968.140625-.4375l10.082032-34.300781c.585937-2 1.699218-3.8125 3.21875-5.238281zm0 0" fill="#60bae2"/><path d="m230.292969 205.160156c-5.242188-2.761718-11.730469-.90625-14.71875 4.214844l-17.722657 30.355469c-1.21875 1.839843-3.699218 2.347656-5.542968 1.132812-.03125-.023437-.0625-.042969-.097656-.066406l-26.378907-18.492187c-5.558593-3.894532-12.175781-5.984376-18.960937-5.984376h-15.386719c-3.578125.886719-7.195313-1.289062-8.082031-4.867187-.128906-.523437-.195313-1.066406-.195313-1.605469v-4.46875c-7.886719 4.710938-17.730469 4.695313-25.601562-.050781v4.742187c0 3.683594-2.988281 6.667969-6.671875 6.664063-.488282 0-.96875-.050781-1.441406-.15625h-17.136719c-4.703125 0-9.234375 1.753906-12.707031 4.921875l-35.167969 32.058594c-4.019531 3.664062-6.894531 8.410156-8.28125 13.667968l-10.347657 39.210938c-1.515624 5.742188 1.671876 11.671875 7.296876 13.578125 5.90625 2.003906 12.320312-1.164063 14.320312-7.070313.046875-.148437.09375-.292968.136719-.441406l10.980469-37.355468 33.417968-31.371094v69.242187h76.800782v-65.296875c0-1.160156.9375-2.097656 2.09375-2.101562.574218 0 1.121093.234375 1.519531.648437l30.742187 19.660157c10.675782 6.828124 24.867188 3.707031 31.695313-6.96875.179687-.28125.351562-.570313.519531-.855469l19.601562-38.078125c2.78125-5.402344.691407-12.035156-4.6875-14.867188zm0 0" fill="#e9e9ea"/><path d="m273.671875 355.992188h20.445313c1.476562.003906 2.949218.210937 4.371093.613281v-126.582031c0-6.007813 4.867188-10.875 10.875-10.875h35.398438v75.609374c1.757812-.636718 3.613281-.964843 5.488281-.96875h20.441406c1.558594 0 3.109375.230469 4.601563.671876v-83.332032c0-12.433594-10.082031-22.511718-22.515625-22.511718h-84.820313v168.433593c1.824219-.695312 3.761719-1.054687 5.714844-1.058593zm0 0" fill="#6d6c6b"/><path d="m77.71875 480.398438h20.445312c1.476563.003906 2.949219.210937 4.371094.617187v-126.582031c0-6.007813 4.867188-10.875 10.875-10.875h35.398438v75.621094c1.757812-.640626 3.613281-.96875 5.484375-.972657h20.449219c1.558593 0 3.109374.230469 4.601562.671875v-83.339844c0-12.433593-10.082031-22.515624-22.515625-22.515624h-84.824219v168.433593c1.824219-.691406 3.761719-1.054687 5.714844-1.058593zm0 0" fill="#6d6c6b"/><path d="m267.957031 339.671875v17.375c1.824219-.691406 3.761719-1.054687 5.714844-1.058594h20.445313c1.476562.003907 2.949218.210938 4.371093.617188v-16.9375zm0 0" fill="#e9e9ea"/><path d="m344.761719 277.46875v17.289062c1.757812-.636718 3.613281-.964843 5.488281-.96875h20.441406c1.558594 0 3.109375.230469 4.601563.671876v-17zm0 0" fill="#e9e9ea"/><path d="m72.003906 464.078125v17.378906c1.824219-.695312 3.761719-1.054687 5.714844-1.058593h20.445312c1.476563.003906 2.949219.210937 4.371094.613281v-16.933594zm0 0" fill="#e9e9ea"/><path d="m148.8125 401.875v17.304688c1.757812-.640626 3.613281-.96875 5.484375-.972657h20.445313c1.558593 0 3.109374.230469 4.601562.671875v-17zm0 0" fill="#e9e9ea"/><path d="m279.753906 40.355469c.535156.003906 1.070313.042969 1.597656.128906v-1.199219c.007813-.738281.613282-1.332031 1.351563-1.328125.089844 0 .179687.011719.265625.03125 4.535156.949219 18.03125 2.570313 27.175781-8.929687.460938-.585938 1.308594-.683594 1.894531-.222656.039063.03125.070313.0625.105469.097656 2.105469 2.0625 7.589844 6.1875 18 6.488281.710938.027344 1.277344.605469 1.292969 1.316406v.402344 3.347656c3.226562-.507812 6.507812.527344 8.855469 2.800781v-18.800781c-.015625-7.886719-6.402344-14.28125-14.292969-14.308593-2.578125 0-5.101562.707031-7.308594 2.039062-2.574218-4.328125-7.234375-6.988281-12.269531-7h-7.34375c-14.257813.039062-25.808594 11.589844-25.847656 25.847656v11.582032c1.847656-1.488282 4.152343-2.292969 6.523437-2.292969zm0 0" fill="#6d6c6b"/><path d="m83.800781 164.765625c.535157 0 1.066407.042969 1.597657.125v-1.199219c.007812-.738281.613281-1.328125 1.351562-1.320312.089844 0 .175781.007812.265625.027344 4.535156.953124 18.027344 2.574218 27.175781-8.929688.460938-.582031 1.308594-.679688 1.894532-.21875.035156.03125.070312.058594.105468.09375 2.105469 2.0625 7.585938 6.1875 18 6.492188.710938.027343 1.277344.605468 1.292969 1.316406v.398437 3.351563c3.226563-.511719 6.507813.527344 8.855469 2.800781v-18.800781c-.015625-7.886719-6.402344-14.285156-14.289063-14.316406-2.574219.003906-5.101562.710937-7.308593 2.042968-2.574219-4.328125-7.230469-6.988281-12.265626-7h-7.351562c-14.257812.039063-25.804688 11.589844-25.847656 25.847656v11.582032c1.847656-1.488282 4.148437-2.296875 6.523437-2.292969zm0 0" fill="#6d6c6b"/><path d="m370.695312 293.777344h-20.445312c-9.023438.023437-16.332031 7.332031-16.355469 16.355468v8c0 1.226563.992188 2.21875 2.214844 2.21875h48.726563c1.222656 0 2.214843-.992187 2.214843-2.214843v-.003907-8c-.023437-9.023437-7.332031-16.332031-16.355469-16.355468zm0 0" fill="#c1814c"/><path d="m294.117188 355.992188h-20.445313c-9.023437.023437-16.332031 7.332031-16.355469 16.355468v8c0 1.222656.992188 2.214844 2.214844 2.214844h48.71875c1.222656 0 2.214844-.992188 2.214844-2.210938v-.003906-8c-.023438-9.019531-7.328125-16.328125-16.347656-16.355468zm0 0" fill="#c1814c"/><path d="m174.742188 418.195312h-20.445313c-9.023437.023438-16.332031 7.332032-16.355469 16.355469v8c0 1.226563.992188 2.21875 2.214844 2.21875h48.726562c1.222657 0 2.214844-.992187 2.214844-2.214843v-.003907-8c-.023437-9.019531-7.332031-16.328125-16.355468-16.355469zm0 0" fill="#c1814c"/><path d="m98.164062 480.398438h-20.445312c-9.023438.023437-16.332031 7.332031-16.355469 16.355468v8c0 1.226563.992188 2.21875 2.214844 2.21875h48.726563c1.222656 0 2.214843-.992187 2.214843-2.214844v-.003906-8c-.023437-9.019531-7.332031-16.328125-16.355469-16.355468zm0 0" fill="#c1814c"/><path d="m333.050781 40.355469c-.558593 0-1.117187.046875-1.667969.136719.035157.558593.0625 1.121093.0625 1.691406v17.257812c0 .5625-.027343 1.125-.0625 1.679688 5.695313.929687 11.0625-2.9375 11.992188-8.632813.929688-5.695312-2.9375-11.066406-8.632812-11.996093-.558594-.089844-1.125-.132813-1.691407-.136719zm0 0" fill="#f9d0b4"/><path d="m281.359375 59.441406v-17.261718c0-.570313.027344-1.132813.0625-1.691407-5.695313-.957031-11.089844 2.882813-12.050781 8.578125-.957032 5.699219 2.882812 11.09375 8.582031 12.050782 1.148437.195312 2.320313.195312 3.472656 0-.039062-.550782-.066406-1.113282-.066406-1.675782zm0 0" fill="#f9d0b4"/><path d="m319.160156 85.4375v-4.476562c-3.855468 2.308593-8.265625 3.527343-12.757812 3.523437-4.527344.003906-8.96875-1.230469-12.84375-3.570313v4.738282c.003906 2.050781-.941406 3.988281-2.558594 5.246094l3.6875 6.640624c1.058594 1.902344 3.0625 3.082032 5.238281 3.082032h12.863281c2.175782 0 4.179688-1.179688 5.238282-3.082032l3.773437-6.789062c-1.667969-1.257812-2.644531-3.222656-2.640625-5.3125zm0 0" fill="#f9d0b4"/><path d="m333.050781 40.355469c-.558593 0-1.117187.046875-1.667969.136719.035157.558593.0625 1.121093.0625 1.691406v17.257812c0 .5625-.027343 1.125-.0625 1.679688 5.695313.929687 11.0625-2.9375 11.992188-8.632813.929688-5.695312-2.9375-11.066406-8.632812-11.996093-.558594-.089844-1.125-.132813-1.691407-.136719zm0 0" fill="#f9d0b4"/><path d="m281.359375 59.441406v-17.261718c0-.570313.027344-1.132813.0625-1.691407-5.695313-.957031-11.089844 2.882813-12.050781 8.578125-.957032 5.699219 2.882812 11.09375 8.582031 12.050782 1.148437.195312 2.320313.195312 3.472656 0-.039062-.550782-.066406-1.113282-.066406-1.675782zm0 0" fill="#f9d0b4"/><path d="m310.152344 29.058594c-9.144532 11.503906-22.640625 9.882812-27.175782 8.929687-.722656-.152343-1.433593.304688-1.585937 1.027344-.019531.089844-.027344.175781-.03125.265625v20.160156c.042969 13.8125 11.230469 25.003906 25.042969 25.042969 13.816406-.039063 25.007812-11.226563 25.046875-25.042969v-22.308594c0-.132812 0-.265624 0-.398437-.011719-.710937-.578125-1.289063-1.289063-1.316406-10.402344-.304688-15.886718-4.429688-18-6.492188-.535156-.519531-1.386718-.511719-1.90625.019531-.035156.035157-.070312.074219-.101562.113282zm0 0" fill="#f9d0b4"/><path d="m204.625 171.359375-2.8125 10.667969c-1.515625 5.742187 1.671875 11.671875 7.292969 13.578125 5.910156 2.003906 12.320312-1.164063 14.320312-7.070313.050781-.148437.097657-.292968.140625-.441406l3.082032-10.484375zm0 0" fill="#f9d0b4"/><path d="m425.199219 109.351562-8.527344 7.855469 16.457031 17.300781 8.261719-7.816406c4.789063-4.472656 5.042969-11.980468.570313-16.769531-4.472657-4.789063-11.980469-5.042969-16.769532-.570313zm0 0" fill="#f9d0b4"/><path d="m137.097656 164.765625c-.558594 0-1.117187.042969-1.667968.132813.039062.5625.0625 1.125.0625 1.691406v17.261718c0 .5625-.023438 1.121094-.0625 1.679688 5.695312.925781 11.066406-2.941406 11.992187-8.636719.929687-5.695312-2.9375-11.066406-8.632813-11.992187-.558593-.09375-1.125-.136719-1.691406-.136719zm0 0" fill="#f9d0b4"/><path d="m85.40625 183.851562v-17.261718c0-.566406.027344-1.128906.066406-1.691406-5.699218-.957032-11.09375 2.882812-12.050781 8.582031-.960937 5.695312 2.882813 11.089843 8.578125 12.050781 1.148438.191406 2.324219.191406 3.472656 0-.039062-.554688-.066406-1.117188-.066406-1.679688zm0 0" fill="#f9d0b4"/><path d="m123.207031 209.847656v-4.46875c-3.855469 2.304688-8.265625 3.515625-12.757812 3.511719-4.523438.003906-8.964844-1.230469-12.84375-3.570313v4.738282c.003906 2.050781-.9375 3.988281-2.554688 5.246094l3.6875 6.640624c1.058594 1.902344 3.0625 3.082032 5.238281 3.082032h12.863282c2.175781 0 4.179687-1.179688 5.238281-3.082032l3.769531-6.789062c-1.664062-1.257812-2.644531-3.222656-2.640625-5.308594zm0 0" fill="#f9d0b4"/><path d="m137.097656 164.765625c-.558594 0-1.117187.042969-1.667968.132813.039062.5625.0625 1.125.0625 1.691406v17.261718c0 .5625-.023438 1.121094-.0625 1.679688 5.695312.925781 11.066406-2.941406 11.992187-8.636719.929687-5.695312-2.9375-11.066406-8.632813-11.992187-.558593-.09375-1.125-.136719-1.691406-.136719zm0 0" fill="#f9d0b4"/><path d="m85.40625 183.851562v-17.261718c0-.566406.027344-1.128906.066406-1.691406-5.699218-.957032-11.09375 2.882812-12.050781 8.582031-.960937 5.695312 2.882813 11.089843 8.578125 12.050781 1.148438.191406 2.324219.191406 3.472656 0-.039062-.554688-.066406-1.117188-.066406-1.679688zm0 0" fill="#f9d0b4"/><path d="m114.199219 153.46875c-9.148438 11.507812-22.640625 9.878906-27.175781 8.929688-.722657-.15625-1.433594.304687-1.585938 1.023437-.019531.089844-.027344.179687-.03125.269531v20.160156c.039062 13.8125 11.230469 25 25.042969 25.039063 13.8125-.039063 25-11.230469 25.042969-25.039063v-22.308593c0-.136719 0-.265625 0-.402344-.015626-.710937-.582032-1.289063-1.292969-1.316406-10.398438-.304688-15.882813-4.425781-18-6.492188-.535157-.515625-1.386719-.507812-1.90625.027344-.035157.035156-.0625.070313-.09375.109375zm0 0" fill="#f9d0b4"/><path d="m8.671875 295.777344-2.820313 10.660156c-1.515624 5.742188 1.671876 11.671875 7.296876 13.578125 5.90625 2.003906 12.320312-1.164063 14.320312-7.070313.046875-.148437.09375-.292968.136719-.441406l3.082031-10.484375zm0 0" fill="#f9d0b4"/><path d="m230.292969 205.160156c-5.242188-2.761718-11.730469-.90625-14.71875 4.214844l-6.722657 11.523438 19.96875 11.117187 6.171876-11.988281c2.777343-5.40625.679687-12.039063-4.699219-14.867188zm0 0" fill="#f9d0b4"/><path d="m419.761719 114.359375 5.4375-5c2.175781-2.003906 5.027343-3.125 7.988281-3.128906l-42.074219-94.050781c-1.65625-3.828126-5.980469-5.734376-9.921875-4.371094-4.035156 1.503906-6.089844 5.996094-4.585937 10.03125.058593.15625.121093.304687.1875.457031zm0 0" fill="#c1814c"/><path d="m447.851562 139.003906-5.816406-13c-.199218.230469-.417968.464844-.648437.683594l-11.316407 10.707031 3.5625 7.964844c1.753907 3.925781 6.363282 5.6875 10.289063 3.929687 3.925781-1.753906 5.6875-6.363281 3.929687-10.292968zm0 0" fill="#c1814c"/><path d="m392.550781 15.382812 22.160157 49.535157 43.605468-49.230469zm0 0" fill="#f75c64"/><path d="m497.421875 238.539062h-89.710937c-5.519532 0-10-4.480468-10-10 0-5.523437 4.480468-10 10-10h89.710937c5.519531 0 10 4.476563 10 10 0 5.519532-4.480469 10-10 10zm0 0" fill="#e9e9ea"/><path d="m466.785156 198.542969h-28.4375c-6.007812 0-10.875 4.867187-10.875 10.875v9.121093h50.199219v-9.121093c0-6.007813-4.871094-10.875-10.878906-10.875-.003907 0-.003907 0-.007813 0zm0 0" fill="#e9e9ea"/><path d="m407.597656 238.539062h87.601563v268.4375h-87.601563zm0 0" fill="#ffae2c"/><path d="m319.992188 320.367188h87.605468v186.609374h-87.605468zm0 0" fill="#fcd770"/><path d="m232.390625 382.570312h87.601563v124.40625h-87.601563zm0 0" fill="#ffae2c"/><path d="m144.785156 444.773438h87.605469v62.203124h-87.605469zm0 0" fill="#fcd770"/><path d="m197.308594 17.886719c-8.90625-1.707031-15.867188-8.671875-17.574219-17.574219-.050781-.2148438-.265625-.3515625-.480469-.3046875-.148437.0351563-.265625.1523435-.300781.3046875-1.707031 8.902344-8.671875 15.867188-17.574219 17.574219-.214844.050781-.351562.261719-.300781.476562.03125.152344.152344.265625.300781.300781 8.902344 1.710938 15.867188 8.671876 17.574219 17.574219.050781.21875.265625.351563.476563.304688.152343-.035157.265624-.152344.304687-.304688 1.707031-8.902343 8.667969-15.863281 17.574219-17.574219.214844-.046874.347656-.261718.300781-.476562-.035156-.148438-.152344-.269531-.300781-.300781zm0 0" fill="#ffae2c"/><path d="m39.386719 387.578125h-17.378907c-2.761718 0-5-2.238281-5-5s2.238282-5 5-5h17.378907c2.761719 0 5 2.238281 5 5s-2.238281 5-5 5zm0 0" fill="#60bae2"/><path d="m30.695312 396.257812c-2.761718 0-5-2.238281-5-5v-17.378906c0-2.761718 2.238282-5 5-5 2.761719 0 5 2.238282 5 5v17.378906c0 2.761719-2.238281 5-5 5zm0 0" fill="#60bae2"/><path d="m507.421875 127.46875h-17.371094c-2.761719 0-5-2.238281-5-5s2.238281-5 5-5h17.378907c2.761718 0 5 2.238281 5 5s-2.238282 5-5 5zm0 0" fill="#f75c64"/><path d="m498.730469 136.15625c-2.761719 0-5-2.238281-5-5v-17.378906c0-2.761719 2.238281-5 5-5s5 2.238281 5 5v17.378906c0 2.761719-2.238281 5-5 5zm0 0" fill="#f75c64"/><path d="m477.664062 174.328125c-1.324218-.003906-2.597656-.527344-3.539062-1.460937-.230469-.230469-.4375-.484376-.621094-.757813-.179687-.277344-.332031-.566406-.460937-.871094-.121094-.300781-.214844-.613281-.277344-.929687-.070313-.324219-.101563-.652344-.101563-.980469 0-.332031.03125-.660156.101563-.980469.0625-.316406.15625-.628906.277344-.929687.128906-.304688.28125-.597657.460937-.871094.183594-.273437.390625-.527344.621094-.757813 1.4375-1.417968 3.578125-1.84375 5.449219-1.082031.300781.128907.589843.28125.859375.460938.273437.179687.53125.386719.761718.621093.230469.230469.4375.488282.621094.757813.179688.273437.332032.566406.457032.871094.128906.300781.226562.613281.292968.929687.0625.320313.09375.648438.097656.980469-.003906.328125-.035156.65625-.097656.980469-.066406.316406-.164062.628906-.292968.929687-.125.304688-.277344.59375-.457032.871094-.183594.269531-.390625.527344-.621094.757813-.230468.234374-.488281.441406-.761718.621093-.269532.175781-.558594.332031-.859375.460938-.304688.121093-.617188.214843-.9375.277343-.320313.070313-.644531.101563-.972657.101563zm0 0" fill="#fcd770"/><path d="m213.820312 73.621094c-1.324218 0-2.597656-.523438-3.539062-1.460938-.230469-.230468-.4375-.484375-.621094-.757812-.179687-.273438-.332031-.566406-.460937-.871094-.121094-.300781-.214844-.613281-.277344-.929688-.070313-.320312-.101563-.648437-.101563-.980468 0-.328125.03125-.65625.101563-.980469.0625-.316406.15625-.628906.277344-.929687.128906-.304688.28125-.59375.460937-.871094.183594-.273438.390625-.527344.621094-.757813 1.4375-1.417969 3.578125-1.84375 5.449219-1.082031.300781.128906.589843.285156.859375.460938.273437.179687.53125.386718.761718.621093.230469.230469.4375.488281.621094.757813.179688.277344.332032.566406.457032.871094.128906.300781.226562.613281.292968.929687.0625.324219.09375.652344.097656.980469-.003906.332031-.035156.660156-.097656.980468-.066406.316407-.164062.628907-.292968.929688-.125.304688-.277344.597656-.457032.871094-.183594.269531-.390625.527344-.621094.757812-.230468.234375-.488281.445313-.761718.621094-.269532.179688-.558594.332031-.859375.460938-.304688.125-.617188.21875-.941407.28125-.316406.066406-.640624.101562-.96875.097656zm0 0" fill="#6dcc6d"/><path d="m497.421875 243.539062h-89.710937c-8.28125 0-15-6.71875-15-15 0-8.285156 6.71875-15 15-15h89.710937c8.28125 0 15 6.714844 15 15 0 8.28125-6.71875 15-15 15zm-89.710937-20c-2.761719 0-5 2.238282-5 5 0 2.761719 2.238281 5 5 5h89.710937c2.761719 0 5-2.238281 5-5 0-2.761718-2.238281-5-5-5zm0 0" fill="#231f20"/><path d="m477.664062 223.539062h-50.199218c-2.761719 0-5-2.238281-5-5v-9.121093c.011718-8.761719 7.113281-15.863281 15.875-15.875h28.4375c8.765625.011719 15.867187 7.113281 15.878906 15.875v9.121093c0 2.757813-2.234375 4.996094-4.992188 5zm-45.199218-10h40.199218v-4.121093c-.003906-3.242188-2.632812-5.871094-5.878906-5.875h-28.4375c-3.242187.003906-5.871094 2.632812-5.875 5.875zm0 0" fill="#231f20"/><path d="m414.707031 69.917969c-1.96875 0-3.757812-1.160157-4.5625-2.957031l-22.160156-49.539063c-.691406-1.550781-.550781-3.347656.375-4.769531.910156-1.445313 2.507813-2.304688 4.214844-2.273438l65.765625.304688c2.761718.011718 4.992187 2.261718 4.976562 5.023437-.003906 1.210938-.453125 2.378907-1.253906 3.289063l-43.613281 49.234375c-.945313 1.074219-2.308594 1.6875-3.742188 1.6875zm-14.429687-49.503907 15.828125 35.382813 31.144531-35.160156zm0 0" fill="#231f20"/><path d="m333.050781 40.355469c-.558593 0-1.117187.046875-1.667969.136719.035157.558593.0625 1.121093.0625 1.691406v17.257812c0 .5625-.027343 1.125-.0625 1.679688 5.695313.929687 11.0625-2.9375 11.992188-8.632813.929688-5.695312-2.9375-11.066406-8.632812-11.996093-.558594-.089844-1.125-.132813-1.691407-.136719zm0 0" fill="#f9d0b4"/><path d="m281.359375 59.441406v-17.261718c0-.570313.027344-1.132813.0625-1.691407-5.695313-.957031-11.089844 2.882813-12.050781 8.578125-.957032 5.699219 2.882812 11.09375 8.582031 12.050782 1.148437.195312 2.320313.195312 3.472656 0-.039062-.550782-.066406-1.113282-.066406-1.675782zm0 0" fill="#f9d0b4"/><path d="m306.40625 120.144531c-2.75.007813-4.992188-2.214843-5-4.96875 0-.011719 0-.023437 0-.03125-.003906-1.328125.519531-2.601562 1.460938-3.539062 1.984374-1.863281 5.074218-1.863281 7.058593 0 .945313.933593 1.480469 2.207031 1.480469 3.539062-.007812 1.328125-.542969 2.601563-1.480469 3.542969-.464843.457031-1.015625.828125-1.617187 1.078125-.605469.25-1.25.375-1.902344.378906zm0 0" fill="#231f20"/><path d="m306.40625 138.660156c-1.324219-.003906-2.59375-.527344-3.539062-1.457031-.230469-.234375-.4375-.488281-.621094-.757813-.179688-.273437-.332032-.5625-.460938-.863281-.117187-.304687-.210937-.617187-.277344-.941406-.074218-.320313-.105468-.648437-.101562-.980469-.003906-.328125.023438-.65625.082031-.976562.070313-.320313.167969-.636719.296875-.941406.128906-.300782.28125-.589844.460938-.859376.179687-.277343.386718-.53125.621094-.761718 1.996093-1.851563 5.082031-1.851563 7.078124 0 .230469.238281.4375.492187.621094.761718.171875.273438.328125.5625.460938.859376.125.304687.214844.621093.28125.941406.128906.644531.128906 1.3125 0 1.957031-.066406.324219-.164063.640625-.300782.941406-.117187.300781-.265624.589844-.441406.863281-.199218.257813-.398437.519532-.621094.757813-.945312.929687-2.214843 1.449219-3.539062 1.457031zm0 0" fill="#231f20"/><path d="m306.40625 157.179688c-.328125.003906-.65625-.03125-.980469-.101563-.320312-.0625-.636719-.160156-.9375-.28125-.304687-.121094-.59375-.273437-.863281-.460937-.269531-.183594-.523438-.390626-.757812-.621094-.226563-.234375-.4375-.488282-.621094-.757813-.363282-.546875-.617188-1.15625-.738282-1.800781-.132812-.648438-.132812-1.3125 0-1.957031.066407-.320313.160157-.636719.277344-.941407.128906-.300781.28125-.589843.460938-.863281.179687-.265625.386718-.515625.621094-.738281 1.175781-1.191406 2.878906-1.710938 4.519531-1.378906.3125.0625.621093.160156.921875.28125.296875.128906.585937.28125.859375.460937.277343.179688.53125.390625.757812.636719.242188.222656.457031.46875.640625.738281.171875.277344.328125.566407.460938.863281.121094.304688.214844.621094.28125.941407.058594.320312.09375.648437.097656.980469-.003906 1.328124-.539062 2.601562-1.480469 3.539062-.230469.234375-.484375.441406-.757812.621094-.269531.183594-.558594.339844-.859375.457031-.296875.125-.605469.21875-.921875.28125-.320313.074219-.648438.105469-.980469.101563zm0 0" fill="#231f20"/><path d="m306.40625 175.703125c-.328125.007813-.65625-.023437-.980469-.097656-.320312-.066407-.636719-.160157-.9375-.285157-.304687-.117187-.59375-.273437-.863281-.457031-.277344-.171875-.53125-.382812-.757812-.621093-1.945313-1.957032-1.945313-5.121094 0-7.082032.230468-.230468.484374-.4375.757812-.617187.269531-.183594.558594-.339844.863281-.460938.300781-.121093.617188-.214843.9375-.28125.648438-.117187 1.3125-.117187 1.960938 0 .3125.066407.621093.160157.921875.28125.300781.121094.589844.277344.859375.460938.273437.183593.535156.390625.777343.617187.222657.242188.421876.5.621094.761719.179688.28125.332032.574219.460938.878906.125.296875.214844.605469.28125.921875.058594.324219.09375.652344.097656.980469-.003906.328125-.039062.65625-.097656.980469-.066406.320312-.15625.632812-.28125.9375-.132813.296875-.285156.585937-.460938.859375-.191406.265625-.398437.519531-.621094.761719-.234374.234374-.496093.445312-.777343.621093-.269531.183594-.558594.339844-.859375.457031-.300782.125-.609375.21875-.921875.285157-.320313.070312-.648438.105469-.980469.097656zm0 0" fill="#231f20"/><path d="m312.789062 105.621094h-12.859374c-3.988282-.003906-7.664063-2.167969-9.601563-5.65625l-3.6875-6.636719c-1.195313-2.148437-.648437-4.847656 1.285156-6.363281.40625-.3125.644531-.796875.644531-1.3125v-4.738282c0-2.761718 2.238282-5 5-5 .90625 0 1.796876.246094 2.578126.714844 6.308593 3.722656 14.136718 3.738282 20.460937.039063 2.371094-1.414063 5.441406-.640625 6.855469 1.730469.460937.773437.707031 1.660156.707031 2.5625v4.476562c-.003906.523438.242187 1.019531.664063 1.332031 1.976562 1.503907 2.546874 4.226563 1.34375 6.398438l-3.769532 6.789062c-1.941406 3.496094-5.625 5.664063-9.621094 5.664063zm-15.761718-14.175782 2.035156 3.664063c.175781.3125.507812.507813.867188.511719h12.859374c.363282-.003906.691407-.199219.867188-.511719l2.097656-3.773437c-.546875-.929688-.960937-1.933594-1.230468-2.980469-5.320313 1.496093-10.953126 1.496093-16.277344 0-.253906 1.085937-.664063 2.125-1.21875 3.089843zm0 0" fill="#231f20"/><path d="m333.050781 66.269531c-.824219-.003906-1.652343-.074219-2.464843-.210937-2.554688-.410156-4.378907-2.699219-4.199219-5.277344.027343-.445312.050781-.890625.050781-1.339844v-17.261718c0-.460938-.023438-.910157-.050781-1.359376-.171875-2.578124 1.648437-4.859374 4.199219-5.269531 8.425781-1.339843 16.347656 4.40625 17.6875 12.835938 1.339843 8.429687-4.402344 16.347656-12.832032 17.6875-.789062.128906-1.589844.191406-2.390625.195312zm3.398438-19.726562v8.539062c2.359375-1.871093 2.753906-5.296875.886719-7.65625-.261719-.328125-.558594-.625-.886719-.882812zm0 0" fill="#231f20"/><path d="m279.753906 66.269531c-8.535156.011719-15.46875-6.898437-15.480468-15.4375-.011719-8.535156 6.898437-15.464843 15.433593-15.476562.84375 0 1.683594.066406 2.515625.203125 2.554688.40625 4.375 2.695312 4.199219 5.273437-.027344.449219-.050781.898438-.050781 1.351563v17.261718c0 .453126.023437.898438.050781 1.347657.171875 2.578125-1.648437 4.859375-4.199219 5.265625-.816406.136718-1.644531.207031-2.46875.210937zm-3.402344-19.726562c-2.355468 1.867187-2.753906 5.296875-.882812 7.65625.261719.328125.554688.621093.882812.882812zm0 0" fill="#231f20"/><path d="m306.402344 89.484375c-16.582032-.019531-30.023438-13.457031-30.042969-30.042969v-20.144531c0-3.496094 2.835937-6.332031 6.332031-6.335937.441406 0 .875.046874 1.304688.136718 4.269531.890625 14.984375 1.984375 22.242187-7.144531 1.121094-1.410156 2.789063-2.277344 4.585938-2.386719 1.792969-.09375 3.542969.5625 4.835937 1.808594 1.457032 1.433594 5.820313 4.800781 14.628906 5.0625 3.378907.097656 6.082032 2.832031 6.148438 6.207031v22.796875c-.019531 16.582032-13.453125 30.019532-30.035156 30.042969zm-20.042969-45.980469v15.9375c0 11.066406 8.976563 20.042969 20.042969 20.042969 11.070312 0 20.042968-8.976563 20.042968-20.042969v-19.261718c-5.308593-.476563-10.414062-2.28125-14.84375-5.25-6.738281 6.441406-15.972656 9.578124-25.242187 8.574218zm27.699219-11.328125" fill="#231f20"/><path d="m340.304688 48.289062c-1.296876 0-2.542969-.5-3.472657-1.398437-1.230469-1.175781-2.933593-1.71875-4.617187-1.464844-2.730469.421875-5.285156-1.449219-5.707032-4.179687-.039062-.253906-.058593-.507813-.058593-.761719v-.304687c-5.308594-.476563-10.414063-2.28125-14.839844-5.25-6.996094 6.652343-16.632813 9.777343-26.199219 8.488281-1.105468 1.519531-2.96875 2.292969-4.824218 2-1.507813-.246094-3.046876.167969-4.234376 1.128906-2.15625 1.726563-5.300781 1.375-7.027343-.78125-.710938-.886719-1.09375-1.988281-1.09375-3.125v-11.574219c.019531-17.027344 13.820312-30.828125 30.847656-30.847656h7.34375c5.199219.023438 10.171875 2.136719 13.800781 5.859375 1.867188-.59375 3.8125-.894531 5.773438-.894531 10.65625.011718 19.289062 8.644531 19.304687 19.300781v18.800781c0 2.761719-2.238281 5-5 5zm-41.226563-38.070312c-11.507813.015625-20.835937 9.339844-20.847656 20.847656v3.734375c.144531-.144531.300781-.285156.460937-.417969 1.484375-1.210937 3.429688-1.683593 5.304688-1.289062 4.273437.894531 14.984375 1.980469 22.242187-7.144531 1.117188-1.414063 2.785157-2.289063 4.585938-2.402344 1.792969-.089844 3.542969.566406 4.835937 1.8125 1.457032 1.429687 5.820313 4.796875 14.628906 5.058594 2.003907.058593 3.859376 1.066406 5 2.710937v-8.644531c-.003906-5.132813-4.15625-9.296875-9.292968-9.304687-1.667969.003906-3.304688.460937-4.734375 1.324218-2.367188 1.421875-5.441407.652344-6.859375-1.714844-1.679688-2.8125-4.703125-4.546874-7.980469-4.570312zm9.574219 22.285156" fill="#231f20"/><path d="m212.753906 201.214844c-9.015625-.007813-16.320312-7.324219-16.3125-16.339844.003906-1.390625.179688-2.773438.535156-4.121094l9.449219-35.824218c2.210938-8.402344 6.804688-15.984376 13.226563-21.832032l29.183594-26.601562c6.574218-6.003906 15.160156-9.332032 24.066406-9.324219h12.539062c.367188 0 .726563.042969 1.082032.121094.902343.203125 1.792968-.363281 1.996093-1.265625.023438-.121094.039063-.242188.039063-.363282v-4.742187c0-2.761719 2.238281-5 5-5 .910156 0 1.800781.25 2.578125.71875 6.308593 3.722656 14.136719 3.734375 20.460937.039063 2.375-1.414063 5.441406-.640626 6.855469 1.730468.464844.773438.707031 1.660156.707031 2.5625v4.464844c0 .925781.75 1.671875 1.671875 1.675781.136719 0 .269531-.015625.402344-.050781.390625-.097656.796875-.148438 1.199219-.148438h16.554687c7.277344.015626 14.234375 3.019532 19.230469 8.308594l32.476562 34.511719 26.113282-24.0625c6.894531-6.261719 17.558594-5.75 23.824218 1.144531 6.140626 6.761719 5.78125 17.183594-.808593 23.507813l-32.078125 30.347656c-9.824219 9.0625-25.078125 8.640625-34.386719-.945313l-28.601563-29.289062v58.175781c0 2.761719-2.238281 5-5 5h-76.800781c-2.761719 0-5-2.238281-5-5v-57.6875l-22.667969 21.277344c-.871093.816406-1.507812 1.851563-1.847656 3l-10.078125 34.296875c-2.042969 6.921875-8.382812 11.683594-15.601562 11.710938zm60.152344-104.050782c-6.414062-.003906-12.597656 2.390626-17.332031 6.714844l-29.183594 26.601563c-5.003906 4.554687-8.578125 10.457031-10.296875 17l-9.441406 35.824219c-.835938 3.195312.9375 6.496093 4.066406 7.566406 3.289062 1.113281 6.863281-.648438 7.980469-3.941406.027343-.082032.054687-.164063.078125-.246094l10.074218-34.304688c.839844-2.855468 2.429688-5.4375 4.597657-7.476562l27.378906-25.699219c2.898437-2.722656 7.453125-2.582031 10.179687.316406 1.257813 1.335938 1.953126 3.101563 1.953126 4.9375v59.15625h66.800781v-60.300781c0-3.921875 3.179687-7.097656 7.101562-7.097656 1.929688 0 3.78125.789062 5.117188 2.183594l33.53125 34.34375c5.527343 5.699218 14.582031 5.964843 20.429687.601562l32-30.285156c2.769532-2.585938 2.921875-6.929688.335938-9.699219-2.585938-2.769531-6.929688-2.917969-9.699219-.332031l-29.746094 27.414062c-2.015625 1.855469-5.152343 1.742188-7.027343-.253906l-35.867188-38.113281c-3.105469-3.285157-7.425781-5.152344-11.945312-5.160157h-16.03125c-6.027344 1.117188-11.894532-2.621093-13.433594-8.558593-5.324219 1.496093-10.957032 1.496093-16.28125 0-1.421875 5.96875-7.222656 9.824219-13.273438 8.816406zm71.894531 28.191407.03125.03125zm0 0" fill="#231f20"/><path d="m212.753906 201.214844c-9.015625-.007813-16.320312-7.324219-16.3125-16.339844.003906-1.390625.179688-2.773438.535156-4.121094l2.8125-10.667968c.703126-2.671876 3.4375-4.265626 6.109376-3.558594.03125.007812.058593.015625.089843.023437l22.023438 6.25c2.65625.753907 4.199219 3.515625 3.445312 6.175781-.003906.011719-.007812.027344-.011719.042969l-3.082031 10.484375c-2.042969 6.921875-8.382812 11.683594-15.601562 11.710938zm-4.597656-23.652344-1.515625 5.742188c-.832031 3.195312.941406 6.496093 4.066406 7.566406 3.292969 1.113281 6.867188-.648438 7.980469-3.941406.03125-.082032.054688-.164063.078125-.246094l1.660156-5.640625zm0 0" fill="#231f20"/><path d="m433.125 139.507812c-1.367188 0-2.679688-.558593-3.621094-1.554687l-16.453125-17.304687c-1.902343-2-1.824219-5.164063.179688-7.066407.019531-.019531.039062-.035156.054687-.054687l8.527344-7.859375c6.894531-6.261719 17.558594-5.75 23.824219 1.144531 6.140625 6.761719 5.78125 17.183594-.808594 23.507812l-8.261719 7.816407c-.929687.882812-2.160156 1.371093-3.441406 1.371093zm-9.332031-22.066406 9.519531 10 4.636719-4.402344c2.773437-2.585937 2.921875-6.925781.335937-9.699218-2.585937-2.769532-6.929687-2.917969-9.699218-.332032zm0 0" fill="#231f20"/><path d="m384.835938 325.367188h-48.726563c-3.984375-.003907-7.210937-3.234376-7.214844-7.214844v-8c.003907-11.796875 9.558594-21.359375 21.355469-21.375h20.445312c11.792969.015625 21.347657 9.574218 21.355469 21.367187v8c0 3.984375-3.226562 7.21875-7.214843 7.222657zm-45.941407-10h43.15625v-5.222657c-.007812-6.269531-5.089843-11.351562-11.355469-11.355469h-20.445312c-6.265625.003907-11.347656 5.085938-11.355469 11.355469zm0 0" fill="#231f20"/><path d="m308.25 387.578125h-48.71875c-3.980469-.003906-7.210938-3.230469-7.214844-7.214844v-8c.011719-11.789062 9.566406-21.34375 21.355469-21.359375h20.445313c11.792968.015625 21.34375 9.570313 21.359374 21.359375v8c-.007812 3.988281-3.238281 7.214844-7.226562 7.214844zm-45.941406-10h43.160156v-5.21875c-.007812-6.273437-5.085938-11.351563-11.359375-11.359375h-20.4375c-6.269531.007812-11.351563 5.085938-11.355469 11.359375zm0 0" fill="#231f20"/><path d="m267.953125 362.046875c-2.761719 0-5-2.238281-5-5v-168.429687c0-2.761719 2.238281-5 5-5h84.828125c15.191406.015624 27.5 12.324218 27.515625 27.511718v83.332032c.003906 2.761718-2.234375 5.003906-4.996094 5.003906-.480469 0-.960937-.066406-1.417969-.203125-1.035156-.308594-2.109374-.464844-3.1875-.46875h-20.445312c-1.296875.003906-2.582031.234375-3.800781.679687-2.597657.933594-5.460938-.414062-6.394531-3.011718-.199219-.542969-.296876-1.117188-.296876-1.695313v-70.617187h-30.402343c-3.242188.003906-5.867188 2.632812-5.871094 5.875v126.585937c0 2.761719-2.242187 5-5 5-.457031 0-.910156-.0625-1.347656-.1875-.984375-.28125-2.003907-.425781-3.027344-.429687h-20.4375c-1.355469.003906-2.695313.253906-3.960937.738281-.558594.210937-1.15625.316406-1.757813.316406zm5-168.429687v157.382812c.238281 0 .480469-.011719.71875-.011719h19.816406v-120.964843c.011719-8.765626 7.113281-15.867188 15.875-15.875h35.402344c2.761719 0 5 2.238281 5 5v69.644531h20.535156v-77.664063c-.015625-9.667968-7.847656-17.5-17.515625-17.511718zm0 0" fill="#231f20"/><path d="m267.953125 362.046875c-2.761719 0-5-2.238281-5-5v-17.375c0-2.761719 2.238281-5 5-5h30.535156c2.761719 0 5 2.238281 5 5v16.9375c0 2.761719-2.238281 5-5 5-.457031 0-.90625-.0625-1.347656-.1875-.984375-.28125-2-.425781-3.023437-.429687h-20.445313c-1.355469.003906-2.695313.253906-3.960937.738281-.558594.210937-1.15625.316406-1.757813.316406zm5-17.375v6.332031c.238281 0 .480469-.011718.71875-.011718h19.816406v-6.320313zm0 0" fill="#231f20"/><path d="m344.761719 299.757812c-2.761719 0-5-2.234374-5-5v-17.289062c0-2.761719 2.238281-5 5-5h30.535156c2.761719 0 5 2.238281 5 5v17c.003906 2.761719-2.234375 5-4.996094 5.003906-.480469 0-.960937-.070312-1.417969-.203125-1.035156-.308593-2.109374-.46875-3.1875-.46875h-20.445312c-1.296875.003907-2.582031.234375-3.800781.675781-.539063.191407-1.113281.289063-1.6875.28125zm5-17.289062v6.324219h20.535156v-6.320313zm0 0" fill="#231f20"/><path d="m419.761719 119.359375c-1.972657 0-3.757813-1.15625-4.5625-2.957031l-42.980469-96.074219c-2.878906-6.457031.019531-14.023437 6.472656-16.90625.25-.109375.503906-.210937.757813-.308594 6.414062-2.289062 13.503906.777344 16.226562 7.015625l42.074219 94.050782c1.128906 2.519531 0 5.476562-2.519531 6.605468-.636719.28125-1.328125.433594-2.023438.433594-1.710937.003906-3.359375.644531-4.621093 1.800781l-5.433594 5c-.921875.855469-2.132813 1.335938-3.390625 1.339844zm-35.972657-107.027344c-.289062 0-.578124.050781-.851562.152344-1.449219.53125-2.191406 2.132813-1.664062 3.578125.023437.0625.046874.125.074218.183594l40.140625 89.730468.320313-.292968c1.292968-1.191406 2.761718-2.171875 4.355468-2.90625l-39.617187-88.566406c-.476563-1.105469-1.550781-1.835938-2.757813-1.878907zm0 0" fill="#231f20"/><path d="m440.761719 154.976562c-5.050781.007813-9.628907-2.957031-11.695313-7.566406l-3.5625-7.960937c-.867187-1.9375-.414062-4.214844 1.128906-5.671875l11.316407-10.710938c.132812-.121094.246093-.253906.363281-.378906 1.851562-2.058594 5.019531-2.222656 7.078125-.371094.515625.464844.925781 1.03125 1.210937 1.660156l5.8125 13c2.878907 6.449219-.011718 14.007813-6.460937 16.890626-1.632813.730468-3.402344 1.109374-5.191406 1.109374zm-4.679688-16.371093 2.113281 4.722656c.632813 1.40625 2.28125 2.035156 3.6875 1.40625 1.402344-.628906 2.03125-2.28125 1.402344-3.683594l-2.914062-6.511719zm0 0" fill="#231f20"/><path d="m137.097656 164.765625c-.558594 0-1.117187.042969-1.667968.132813.039062.5625.0625 1.125.0625 1.691406v17.261718c0 .5625-.023438 1.121094-.0625 1.679688 5.695312.925781 11.066406-2.941406 11.992187-8.636719.929687-5.695312-2.9375-11.066406-8.632813-11.992187-.558593-.09375-1.125-.136719-1.691406-.136719zm0 0" fill="#f9d0b4"/><path d="m85.40625 183.851562v-17.261718c0-.566406.027344-1.128906.066406-1.691406-5.699218-.957032-11.09375 2.882812-12.050781 8.582031-.960937 5.695312 2.882813 11.089843 8.578125 12.050781 1.148438.191406 2.324219.191406 3.472656 0-.039062-.554688-.066406-1.117188-.066406-1.679688zm0 0" fill="#f9d0b4"/><g fill="#231f20"><path d="m110.449219 244.542969c-2.761719.003906-5.003907-2.230469-5.007813-4.992188 0-1.332031.527344-2.605469 1.46875-3.546875.242188-.21875.5-.421875.761719-.621094.273437-.171874.5625-.328124.859375-.460937.304688-.121094.617188-.214844.941406-.28125.644532-.136719 1.3125-.136719 1.957032 0 .324218.066406.636718.160156.941406.28125.296875.132813.582031.289063.859375.460937.265625.191407.519531.398438.761719.621094 1.953124 1.949219 1.957031 5.117188.007812 7.070313-.941406.945312-2.21875 1.472656-3.550781 1.46875zm0 0"/><path d="m110.449219 263.0625c-.328125.007812-.65625-.027344-.976563-.097656-.320312-.066406-.636718-.160156-.941406-.28125-.300781-.125-.589844-.28125-.859375-.460938-.273437-.183594-.527344-.390625-.761719-.617187-.230468-.234375-.4375-.488281-.621094-.761719-.183593-.269531-.335937-.558594-.457031-.863281-.125-.300781-.21875-.617188-.28125-.9375-.0625-.324219-.097656-.652344-.101562-.980469.003906-.324219.039062-.644531.101562-.957031.0625-.324219.15625-.640625.28125-.945313.121094-.300781.273438-.589844.457031-.859375.183594-.273437.390626-.527343.621094-.757812.234375-.230469.488282-.4375.761719-.621094.269531-.1875.558594-.347656.859375-.480469.304688-.121094.617188-.214844.941406-.28125.644532-.121094 1.308594-.121094 1.957032 0 .324218.0625.636718.15625.941406.28125.300781.132813.589844.292969.859375.480469.277343.179687.53125.386719.761719.621094.230468.230469.4375.484375.617187.757812.183594.269531.339844.558594.460937.859375.125.304688.214844.621094.28125.945313.0625.3125.09375.632812.097657.957031 0 .328125-.035157.65625-.097657.980469-.0625.320312-.15625.636719-.28125.9375-.121093.304687-.277343.59375-.460937.863281-.179687.273438-.386719.527344-.617187.761719-.941407.933593-2.214844 1.460937-3.542969 1.457031zm0 0"/><path d="m110.449219 281.578125c-.328125 0-.65625-.023437-.976563-.082031-.324218-.070313-.636718-.171875-.941406-.296875-.300781-.125-.589844-.28125-.859375-.460938-.273437-.183593-.527344-.390625-.761719-.621093-.230468-.230469-.4375-.484376-.621094-.757813-.175781-.277344-.328124-.5625-.457031-.863281-.125-.300782-.21875-.617188-.28125-.941406-.0625-.316407-.097656-.636719-.101562-.957032.003906-.328125.039062-.65625.101562-.980468.0625-.320313.15625-.636719.28125-.9375.121094-.304688.273438-.59375.457031-.863282.183594-.273437.390626-.527344.621094-.761718.234375-.230469.488282-.433594.761719-.617188.269531-.183594.558594-.335938.859375-.460938.304688-.125.617188-.226562.941406-.296874.644532-.125 1.308594-.125 1.957032 0 .644531.136718 1.253906.394531 1.800781.757812.273437.183594.527343.390625.761719.621094.230468.230468.4375.484375.617187.757812.183594.269532.339844.558594.460937.863282.125.304687.21875.617187.28125.941406.074219.320312.105469.648437.097657.980468.007812.320313-.027344.640626-.097657.957032-.066406.320312-.15625.636718-.28125.941406-.121093.300781-.277343.589844-.460937.859375-.179687.273437-.386719.527344-.617187.761719-.234376.230468-.488282.433594-.761719.617187-.269531.183594-.558594.335938-.859375.460938-.300782.128906-.617188.230469-.941406.300781-.324219.054688-.652344.082031-.980469.078125zm0 0"/><path d="m110.449219 300.125c-2.761719.003906-5.003907-2.230469-5.007813-4.992188 0-1.332031.527344-2.609374 1.46875-3.550781 1.992188-1.871093 5.089844-1.871093 7.082032 0 .234374.230469.441406.488281.617187.761719.183594.269531.339844.558594.460937.859375.125.304687.214844.617187.28125.941406.0625.320313.097657.648438.097657.980469-.003907.328125-.035157.65625-.097657.980469-.066406.3125-.15625.621093-.28125.917969-.121093.300781-.277343.589843-.460937.859374-.183594.277344-.390625.539063-.617187.78125-.234376.226563-.492188.4375-.761719.621094-.277344.171875-.5625.328125-.859375.457032-.304688.125-.617188.21875-.941406.285156-.320313.058594-.652344.09375-.980469.097656zm0 0"/><path d="m116.835938 230.027344h-12.859376c-3.988281-.003906-7.660156-2.167969-9.601562-5.652344l-3.6875-6.640625c-1.191406-2.148437-.648438-4.84375 1.285156-6.359375.410156-.3125.644532-.800781.644532-1.3125v-4.742188c0-2.761718 2.238281-5 5-5 .90625 0 1.800781.25 2.578124.71875 6.308594 3.71875 14.136719 3.734376 20.460938.035157 2.371094-1.414063 5.441406-.636719 6.855469 1.734375.464843.773437.707031 1.660156.707031 2.5625v4.476562c0 .523438.242188 1.015625.667969 1.328125 1.972656 1.503907 2.542969 4.226563 1.34375 6.398438l-3.78125 6.804687c-1.941407 3.488282-5.621094 5.648438-9.613281 5.648438zm-15.761719-14.171875 2.035156 3.664062c.175781.3125.507813.507813.867187.507813h12.863282c.359375 0 .691406-.195313.867187-.507813l2.097657-3.773437c-.550782-.933594-.960938-1.9375-1.230469-2.980469-5.320313 1.496094-10.957031 1.496094-16.277344 0-.257813 1.082031-.671875 2.121094-1.222656 3.089844zm0 0"/><path d="m137.097656 190.675781c-.824218-.003906-1.652344-.074219-2.464844-.210937-2.550781-.40625-4.371093-2.6875-4.199218-5.265625.027344-.449219.050781-.894531.050781-1.347657v-17.261718c0-.457032-.023437-.90625-.050781-1.359375-.171875-2.578125 1.648437-4.859375 4.199218-5.265625 8.425782-1.363282 16.359376 4.363281 17.722657 12.789062 1.363281 8.425782-4.363281 16.359375-12.789063 17.722656-.816406.132813-1.640625.195313-2.464844.195313zm3.402344-19.726562v8.539062c2.355469-1.867187 2.753906-5.296875.882812-7.65625-.261718-.328125-.554687-.621093-.882812-.882812zm0 0"/><path d="m83.800781 190.675781c-8.539062.011719-15.46875-6.898437-15.480469-15.433593-.011718-8.535157 6.898438-15.464844 15.433594-15.476563.84375-.003906 1.683594.0625 2.515625.199219 2.542969.414062 4.351563 2.695312 4.183594 5.265625-.03125.453125-.050781.902343-.050781 1.359375v17.261718c0 .453126.019531.898438.050781 1.347657.167969 2.578125-1.648437 4.859375-4.199219 5.265625-.8125.136718-1.632812.207031-2.453125.210937zm-3.402343-19.726562c-2.359376 1.871093-2.753907 5.296875-.882813 7.65625.257813.328125.554687.625.882813.882812zm0 0"/><path d="m110.449219 213.894531c-16.585938-.019531-30.023438-13.457031-30.042969-30.042969v-20.144531c0-3.5 2.839844-6.335937 6.339844-6.335937.433594 0 .871094.046875 1.296875.132812 4.269531.894532 14.976562 1.988282 22.242187-7.144531 2.183594-2.742187 6.175782-3.199219 8.921875-1.015625.171875.136719.335938.285156.496094.4375 1.464844 1.4375 5.824219 4.800781 14.632813 5.0625 3.382812.101562 6.085937 2.839844 6.148437 6.21875v22.789062c-.019531 16.578126-13.453125 30.019532-30.035156 30.042969zm-20.042969-45.980469v15.9375c0 11.066407 8.976562 20.039063 20.042969 20.039063 11.066406 0 20.042969-8.972656 20.042969-20.039063v-19.273437c-5.308594-.472656-10.414063-2.273437-14.839844-5.242187-6.738282 6.449218-15.976563 9.585937-25.246094 8.578124zm27.703125-11.335937"/><path d="m144.351562 172.699219c-1.292968 0-2.539062-.503907-3.472656-1.402344-1.230468-1.175781-2.933594-1.71875-4.617187-1.464844-2.726563.425781-5.285157-1.4375-5.710938-4.167969-.039062-.253906-.058593-.511718-.058593-.769531v-.316406c-5.308594-.472656-10.414063-2.273437-14.839844-5.242187-6.996094 6.65625-16.632813 9.78125-26.203125 8.492187-1.101563 1.519531-2.964844 2.292969-4.816407 2-1.511718-.246094-3.050781.167969-4.234374 1.128906-2.15625 1.726563-5.304688 1.375-7.03125-.78125-.707032-.886719-1.09375-1.988281-1.09375-3.125v-11.574219c.019531-17.03125 13.820312-30.832031 30.851562-30.847656h7.347656c5.199219.019532 10.171875 2.132813 13.796875 5.859375 1.867188-.59375 3.816407-.898437 5.773438-.898437 10.65625.011718 19.292969 8.648437 19.304687 19.304687v18.800781c0 2.761719-2.238281 5-5 5zm-41.226562-38.070313c-11.507812.011719-20.835938 9.339844-20.847656 20.847656v3.734376c.148437-.148438.304687-.289063.464844-.421876 1.484374-1.203124 3.429687-1.675781 5.300781-1.289062 4.273437.894531 14.976562 1.988281 22.242187-7.144531 2.183594-2.746094 6.175782-3.203125 8.921875-1.023438.175781.140625.339844.285157.496094.441407 1.464844 1.4375 5.824219 4.800781 14.636719 5.0625 2 .058593 3.855468 1.0625 5 2.707031v-8.648438c-.003906-5.128906-4.160156-9.292969-9.289063-9.308593-1.667969.007812-3.304687.464843-4.734375 1.328124-2.371094 1.421876-5.441406.65625-6.863281-1.710937 0 0 0-.003906-.003906-.003906-1.675781-2.8125-4.699219-4.546875-7.976563-4.570313zm0 0"/><path d="m16.800781 325.625c-9.015625-.007812-16.320312-7.324219-16.3125-16.339844.003907-1.390625.179688-2.777344.53125-4.121094l10.34375-39.210937c1.628907-6.1875 5.015625-11.777344 9.746094-16.085937l35.167969-32.0625c4.394531-4.011719 10.128906-6.234376 16.078125-6.230469h17.136719c.363281 0 .726562.042969 1.082031.121093.902343.199219 1.792969-.367187 1.992187-1.265624.027344-.121094.039063-.242188.039063-.363282v-4.742187c0-2.761719 2.238281-5 5-5 .910156 0 1.800781.25 2.578125.71875 6.308594 3.722656 14.140625 3.734375 20.460937.039062 2.371094-1.417969 5.441407-.640625 6.855469 1.726563.460938.773437.707031 1.660156.707031 2.566406v4.476562c0 .921876.75 1.671876 1.671875 1.671876.136719 0 .273438-.015626.402344-.050782.394531-.097656.796875-.144531 1.203125-.144531h15.378906c7.816407-.011719 15.441407 2.394531 21.832031 6.886719l25.492188 17.867187 17.070312-29.222656c4.328126-7.445313 13.757813-10.144531 21.367188-6.117187 7.78125 4.128906 10.808594 13.734374 6.800781 21.578124l-19.597656 38.078126c-.039063.070312-.078125.144531-.121094.21875-7.742187 13.355468-24.847656 17.90625-38.203125 10.160156-.347656-.203125-.695312-.414063-1.035156-.632813l-26.660156-17.046875v59.933594c0 2.761719-2.238282 5-5 5h-76.800782c-2.761718 0-5-2.238281-5-5v-57.699219l-24 22.527344-10.601562 36.050781c-2.042969 6.921875-8.382812 11.683594-15.597656 11.710938zm55.554688-104.046875c-3.457031-.003906-6.789063 1.289063-9.339844 3.621094l-35.164063 32.054687c-3.308593 3.015625-5.675781 6.917969-6.816406 11.246094l-10.34375 39.214844c-.832031 3.195312.941406 6.496094 4.066406 7.5625 3.292969 1.117187 6.867188-.648438 7.980469-3.941406.027344-.082032.054688-.164063.078125-.246094l10.976563-37.355469c.253906-.855469.726562-1.625 1.378906-2.234375l33.410156-31.363281c2.011719-1.890625 5.175781-1.789063 7.066407.226562.871093.925781 1.355468 2.148438 1.355468 3.417969v64.242188h66.800782v-60.300782c0-3.921875 3.175781-7.101562 7.097656-7.101562 1.671875 0 3.289062.589844 4.566406 1.664062l30.382812 19.429688c8.347657 5.34375 19.445313 2.90625 24.789063-5.445313.117187-.1875.234375-.378906.351563-.570312l19.535156-37.960938c1.546875-2.976562.382812-6.640625-2.597656-8.1875-2.875-1.492187-6.417969-.460937-8.046876 2.34375l-17.726562 30.355469c-.050781.082031-.097656.164062-.152344.242188-2.742187 4.148437-8.324218 5.285156-12.472656 2.539062-.066406-.046875-.132812-.089844-.203125-.136719l-26.375-18.496093c-4.710937-3.3125-10.332031-5.085938-16.089844-5.078126h-14.855469c-6.027343 1.117188-11.894531-2.617187-13.433593-8.554687-5.324219 1.492187-10.957031 1.492187-16.28125 0-1.421875 5.96875-7.21875 9.820313-13.273438 8.816406zm0 0"/><path d="m16.800781 325.625c-9.015625-.007812-16.320312-7.324219-16.3125-16.339844.003907-1.390625.179688-2.777344.53125-4.121094l2.816407-10.671874c.703124-2.667969 3.4375-4.261719 6.109374-3.558594.03125.007812.058594.015625.089844.023437l22.015625 6.25c2.65625.753907 4.199219 3.519531 3.445313 6.175781-.003906.015626-.007813.03125-.011719.046876l-3.082031 10.480468c-2.042969 6.925782-8.390625 11.6875-15.609375 11.710938zm-4.59375-23.648438-1.515625 5.746094c-.832031 3.195313.941406 6.496094 4.066406 7.5625 3.296876 1.117188 6.867188-.648437 7.984376-3.945312.027343-.078125.050781-.160156.078124-.238282l1.65625-5.644531zm0 0"/><path d="m188.882812 449.777344h-48.726562c-3.980469-.003906-7.210938-3.230469-7.214844-7.214844v-8c.011719-11.789062 9.566406-21.339844 21.355469-21.355469h20.445313c11.789062.015625 21.339843 9.566407 21.355468 21.355469v8c-.003906 3.984375-3.234375 7.210938-7.214844 7.214844zm-45.941406-10h43.15625v-5.222656c-.003906-6.269532-5.085937-11.347657-11.355468-11.355469h-20.445313c-6.269531.007812-11.351563 5.085937-11.355469 11.355469zm0 0"/><path d="m112.304688 511.976562h-48.726563c-3.984375-.003906-7.210937-3.230468-7.214844-7.210937v-8c.007813-11.792969 9.5625-21.355469 21.355469-21.367187h20.445312c11.789063.011718 21.34375 9.566406 21.355469 21.355468v8c0 3.988282-3.230469 7.21875-7.214843 7.222656zm-45.941407-10h43.15625v-5.21875c-.003906-6.269531-5.085937-11.351562-11.355469-11.359374h-20.445312c-6.269531.007812-11.351562 5.089843-11.355469 11.359374zm0 0"/><path d="m72.003906 486.457031c-2.761718 0-5-2.238281-5-5v-168.433593c0-2.761719 2.238282-5 5-5h84.824219c15.1875.015624 27.5 12.328124 27.515625 27.515624v83.332032c0 2.761718-2.234375 5-4.996094 5.003906-.480468 0-.960937-.070312-1.421875-.207031-1.03125-.304688-2.105469-.464844-3.183593-.464844h-20.445313c-1.296875.003906-2.582031.230469-3.800781.675781-2.597656.929688-5.460938-.421875-6.394532-3.023437-.191406-.539063-.289062-1.105469-.289062-1.675781v-70.621094h-30.402344c-3.242187.003906-5.871094 2.632812-5.875 5.875v126.582031c0 2.761719-2.238281 5-5 5-.453125 0-.90625-.0625-1.347656-.1875-.984375-.277344-2-.421875-3.023438-.429687h-20.445312c-1.351562.007812-2.695312.253906-3.957031.738281-.5625.210937-1.160157.320312-1.757813.320312zm5-168.433593v157.386718c.238282-.007812.476563-.011718.714844-.011718h19.816406v-120.96875c.011719-8.761719 7.113282-15.863282 15.875-15.875h35.402344c2.761719 0 5 2.238281 5 5v69.644531h20.53125v-77.660157c-.011719-9.667968-7.847656-17.503906-17.515625-17.515624zm0 0"/><path d="m72.003906 486.457031c-2.761718 0-5-2.238281-5-5v-17.375c0-2.761719 2.238282-5 5-5h30.53125c2.765625 0 5 2.238281 5 5v16.933594c0 2.761719-2.238281 5-5 5-.453125 0-.90625-.0625-1.347656-.1875-.984375-.277344-2-.421875-3.023438-.429687h-20.445312c-1.351562.007812-2.695312.253906-3.957031.738281-.5625.210937-1.160157.320312-1.757813.320312zm5-17.375v6.328125c.238282-.007812.476563-.011718.714844-.011718h19.816406v-6.316407zm0 0"/><path d="m148.8125 424.179688c-2.761719 0-5-2.238282-5-5v-17.292969c0-2.761719 2.238281-5 5-5h30.53125c2.761719 0 5 2.238281 5 5v17c0 2.761719-2.234375 5-4.996094 5.003906-.480468 0-.960937-.070313-1.421875-.203125-1.03125-.308594-2.105469-.46875-3.183593-.46875h-20.445313c-1.296875.003906-2.582031.230469-3.800781.675781-.542969.191407-1.109375.289063-1.683594.285157zm5-17.292969v6.324219h20.53125v-6.320313zm0 0"/><path d="m228.8125 237.015625c-.855469 0-1.691406-.21875-2.433594-.632813l-19.96875-11.113281c-2.410156-1.347656-3.277344-4.390625-1.933594-6.800781.015626-.03125.03125-.0625.046876-.089844l6.730468-11.527344c4.328125-7.445312 13.761719-10.140624 21.371094-6.117187 7.777344 4.132813 10.804688 13.738281 6.800781 21.578125l-6.171875 11.988281c-.855468 1.664063-2.574218 2.710938-4.445312 2.710938zm-13.078125-18 11 6.121094 3.796875-7.402344c1.515625-2.960937.371094-6.59375-2.570312-8.152344-2.875-1.519531-6.4375-.5-8.074219 2.308594zm0 0"/><path d="m495.199219 511.976562h-87.597657c-2.761718 0-5-2.238281-5-5v-268.4375c0-2.761718 2.238282-5 5-5h87.597657c2.761719 0 5 2.238282 5 5v268.4375c0 2.761719-2.238281 5-5 5zm-82.597657-10h77.597657v-258.4375h-77.597657zm0 0"/><path d="m407.597656 511.976562h-87.601562c-2.761719 0-5-2.238281-5-5v-186.609374c0-2.761719 2.238281-5 5-5h87.601562c2.761719 0 5 2.238281 5 5v186.609374c0 2.761719-2.238281 5-5 5zm-82.601562-10h77.601562v-176.609374h-77.601562zm0 0"/><path d="m319.992188 511.976562h-87.597657c-2.761719 0-5-2.238281-5-5v-124.398437c0-2.761719 2.238281-5 5-5h87.597657c2.761718 0 5 2.238281 5 5v124.398437c0 2.761719-2.238282 5-5 5zm-82.597657-10h77.597657v-114.398437h-77.597657zm0 0"/><path d="m232.390625 511.976562h-87.601563c-2.761718 0-5-2.238281-5-5v-62.199218c0-2.761719 2.238282-5 5-5h87.601563c2.761719 0 5 2.238281 5 5v62.199218c0 2.761719-2.238281 5-5 5zm-82.601563-10h77.601563v-52.199218h-77.601563zm0 0"/><path d="m144.78125 511.976562h-81.199219c-2.761719 0-5-2.238281-5-5 0-2.761718 2.238281-5 5-5h81.199219c2.761719 0 5 2.238282 5 5 0 2.761719-2.238281 5-5 5zm0 0"/><path d="m41.414062 511.976562h-17.664062c-2.761719 0-5-2.238281-5-5 0-2.761718 2.238281-5 5-5h17.664062c2.761719 0 5 2.238282 5 5 0 2.761719-2.238281 5-5 5zm0 0"/></g></svg>