<?xml version="1.0" encoding="UTF-8" standalone="no"?>
<svg
   xmlns:dc="http://purl.org/dc/elements/1.1/"
   xmlns:cc="http://creativecommons.org/ns#"
   xmlns:rdf="http://www.w3.org/1999/02/22-rdf-syntax-ns#"
   xmlns:svg="http://www.w3.org/2000/svg"
   xmlns="http://www.w3.org/2000/svg"
   xmlns:sodipodi="http://sodipodi.sourceforge.net/DTD/sodipodi-0.dtd"
   xmlns:inkscape="http://www.inkscape.org/namespaces/inkscape"
   version="1.1"
   x="0px"
   y="0px"
   viewBox="0 0 126 126"
   xml:space="preserve"
   id="svg4489"
   sodipodi:docname="li-logo1.svg"
   width="126"
   height="126"
   inkscape:version="0.92.4 (5da689c313, 2019-01-14)"><metadata
     id="metadata4495"><rdf:RDF><cc:Work
         rdf:about=""><dc:format>image/svg+xml</dc:format><dc:type
           rdf:resource="http://purl.org/dc/dcmitype/StillImage" /><dc:title></dc:title></cc:Work></rdf:RDF></metadata><defs
     id="defs4493" /><sodipodi:namedview
     pagecolor="#ffffff"
     bordercolor="#666666"
     borderopacity="1"
     objecttolerance="10"
     gridtolerance="10"
     guidetolerance="10"
     inkscape:pageopacity="0"
     inkscape:pageshadow="2"
     inkscape:window-width="1366"
     inkscape:window-height="706"
     id="namedview4491"
     showgrid="false"
     inkscape:zoom="1.475"
     inkscape:cx="63"
     inkscape:cy="47"
     inkscape:window-x="-8"
     inkscape:window-y="-8"
     inkscape:window-maximized="1"
     inkscape:current-layer="svg4489" /><g
     id="g4483"
     transform="translate(-1,-1)"><rect
       x="35"
       y="49"
       width="8"
       height="40"
       id="rect4475" /><rect
       x="35"
       y="31"
       width="8"
       height="8"
       id="rect4477" /><path
       d="m 63,74 v -5 c 0,-6.1 4.9,-11 11,-11 6.1,0 11,4.9 11,11 v 20 h 8 V 69 C 93,58.5 84.5,50 74,50 69.9,50 66.1,51.3 63,53.5 V 49 h -8 v 20 5 15 h 8 z"
       id="path4479"
       inkscape:connector-curvature="0" /><path
       d="M 127,1 H 1 v 126 h 126 z m -8,118 H 9 V 9 h 110 z"
       id="path4481"
       inkscape:connector-curvature="0" /></g></svg>