<?xml version="1.0" encoding="UTF-8" standalone="no"?>
<svg
   xmlns:dc="http://purl.org/dc/elements/1.1/"
   xmlns:cc="http://creativecommons.org/ns#"
   xmlns:rdf="http://www.w3.org/1999/02/22-rdf-syntax-ns#"
   xmlns:svg="http://www.w3.org/2000/svg"
   xmlns="http://www.w3.org/2000/svg"
   xmlns:sodipodi="http://sodipodi.sourceforge.net/DTD/sodipodi-0.dtd"
   xmlns:inkscape="http://www.inkscape.org/namespaces/inkscape"
   version="1.1"
   x="0px"
   y="0px"
   viewBox="0 0 400 361.31"
   xml:space="preserve"
   id="svg4875"
   sodipodi:docname="m-logo.svg"
   width="400"
   height="361.31"
   inkscape:version="0.92.4 (5da689c313, 2019-01-14)"><metadata
     id="metadata4881"><rdf:RDF><cc:Work
         rdf:about=""><dc:format>image/svg+xml</dc:format><dc:type
           rdf:resource="http://purl.org/dc/dcmitype/StillImage" /><dc:title></dc:title></cc:Work></rdf:RDF></metadata><defs
     id="defs4879" /><sodipodi:namedview
     pagecolor="#ffffff"
     bordercolor="#666666"
     borderopacity="1"
     objecttolerance="10"
     gridtolerance="10"
     guidetolerance="10"
     inkscape:pageopacity="0"
     inkscape:pageshadow="2"
     inkscape:window-width="1366"
     inkscape:window-height="706"
     id="namedview4877"
     showgrid="false"
     inkscape:zoom="0.20653846"
     inkscape:cx="213.07263"
     inkscape:cy="224.83563"
     inkscape:window-x="-8"
     inkscape:window-y="-8"
     inkscape:window-maximized="1"
     inkscape:current-layer="svg4875" /><g
     transform="translate(-60,-79.345)"
     id="g4869"><g
       id="g4867"><g
         id="g4865"><path
           inkscape:connector-curvature="0"
           d="m 87.5,359.345 c -6.893,0 -12.5,5.607 -12.5,12.5 0,6.893 5.607,12.5 12.5,12.5 6.893,0 12.5,-5.607 12.5,-12.5 0,-6.893 -5.607,-12.5 -12.5,-12.5 z"
           id="path4843" /><path
           inkscape:connector-curvature="0"
           d="m 256.81,262.75 c -0.976,0.977 -2.256,1.465 -3.535,1.465 -4.414,0 -6.695,-5.377 -3.535,-8.535 L 410.684,94.735 71.834,216.352 c 21.887,9.327 133.459,56.876 155.426,66.238 1.188,0.506 2.133,1.452 2.639,2.64 6.492,15.232 59.754,140.208 66.238,155.425 L 417.754,101.806 Z"
           id="path4845" /><path
           inkscape:connector-curvature="0"
           d="m 435,264.345 c -13.785,0 -25,11.215 -25,25 0,13.785 11.215,25 25,25 13.785,0 25,-11.215 25,-25 0,-13.785 -11.215,-25 -25,-25 z"
           id="path4847" /><polygon
           points="221.488,291.001 186.338,276.021 186.338,326.152 236.469,326.152 "
           id="polygon4849" /><path
           inkscape:connector-curvature="0"
           d="m 132.5,114.345 c 9.65,0 17.5,-7.851 17.5,-17.5 0,-9.649 -7.85,-17.5 -17.5,-17.5 -9.648,0 -17.5,7.851 -17.5,17.5 0,9.649 7.852,17.5 17.5,17.5 z"
           id="path4851" /><circle
           cx="67.5"
           cy="106.845"
           r="7.5"
           id="circle4853" /><circle
           cx="217.5"
           cy="91.845001"
           r="7.5"
           id="circle4855" /><circle
           cx="432.5"
           cy="191.845"
           r="7.5"
           id="circle4857" /><circle
           cx="392.5"
           cy="391.845"
           r="7.5"
           id="circle4859" /><circle
           cx="212.5"
           cy="426.845"
           r="7.5"
           id="circle4861" /><circle
           cx="72.5"
           cy="291.845"
           r="7.5"
           id="circle4863" /></g></g></g></svg>