<svg height="512" viewBox="0 0 64 64" width="512" xmlns="http://www.w3.org/2000/svg"><g id="Monitor_setting" data-name="Monitor setting"><rect fill="#2488ff" height="40" rx="4" width="58" x="3" y="11"/><path d="m7 15h50v30h-50z" fill="#ffcd00"/><path d="m26 51h12v6h-12z" fill="#a7a9ac"/><path d="m18 57a2 2 0 0 0 0 4h28a2 2 0 0 0 0-4z" fill="#808285"/><path d="m48.65 20a3.228 3.228 0 0 1 -.24.58l2.37 2.37-2.83 2.83-2.37-2.37a3.228 3.228 0 0 1 -.58.24v3.35h-4v-3.35a3.228 3.228 0 0 1 -.58-.24l-2.37 2.37-2.83-2.83 2.37-2.37a3.228 3.228 0 0 1 -.24-.58h-3.35v-4h3.35a3.228 3.228 0 0 1 .24-.58l-2.37-2.37 2.83-2.83 2.37 2.37a3.228 3.228 0 0 1 .58-.24v-3.35h4v3.35a3.228 3.228 0 0 1 .58.24l2.37-2.37 2.83 2.83-2.37 2.37a3.228 3.228 0 0 1 .24.58h3.35v4z" fill="#ee8700"/><circle cx="43" cy="18" fill="#f1f2f2" r="3"/><path d="m27.65 14a3.228 3.228 0 0 1 -.24.58l2.37 2.37-2.83 2.83-2.37-2.37a3.228 3.228 0 0 1 -.58.24v3.35h-4v-3.35a3.228 3.228 0 0 1 -.58-.24l-2.37 2.37-2.83-2.83 2.37-2.37a3.228 3.228 0 0 1 -.24-.58h-3.35v-4h3.35a3.228 3.228 0 0 1 .24-.58l-2.37-2.37 2.83-2.83 2.37 2.37a3.228 3.228 0 0 1 .58-.24v-3.35h4v3.35a3.228 3.228 0 0 1 .58.24l2.37-2.37 2.83 2.83-2.37 2.37a3.228 3.228 0 0 1 .24.58h3.35v4z" fill="#5eac24"/><circle cx="22" cy="12" fill="#f1f2f2" r="3"/><path d="m20 45h37v-30c0 16.582-16.549 30-37 30z" fill="#ddb200"/><path d="m44 45v-6h-4.46a9.244 9.244 0 0 0 -.68-1.62l3.16-3.16-4.24-4.24-3.16 3.16a9.244 9.244 0 0 0 -1.62-.68v-4.46h-6v4.46a9.244 9.244 0 0 0 -1.62.68l-3.16-3.16-4.24 4.24 3.16 3.16a9.244 9.244 0 0 0 -.68 1.62h-4.46v6z" fill="#d80027"/><path d="m30 37a5 5 0 0 0 -5 5 4.941 4.941 0 0 0 1 3h8a4.941 4.941 0 0 0 1-3 5 5 0 0 0 -5-5z" fill="#f1f2f2"/><path d="m26 51h12v2h-12z" fill="#808285"/><g fill="#231f20"><path d="m57 10h-3a1 1 0 0 0 0 2h3a3 3 0 0 1 3 3v32a3 3 0 0 1 -3 3h-50a3 3 0 0 1 -3-3v-32a3 3 0 0 1 3-3h3a1 1 0 0 0 0-2h-3a5.006 5.006 0 0 0 -5 5v32a5.006 5.006 0 0 0 5 5h18v4h-7a3 3 0 0 0 0 6h28a3 3 0 0 0 0-6h-7v-4h18a5.006 5.006 0 0 0 5-5v-32a5.006 5.006 0 0 0 -5-5zm-10 49a1 1 0 0 1 -1 1h-28a1 1 0 0 1 0-2h28a1 1 0 0 1 1 1zm-10-3h-10v-4h10z"/><path d="m31 47a1 1 0 0 0 0 2h2a1 1 0 0 0 0-2z"/><path d="m34 21h1.756l-1.243 1.243a1 1 0 0 0 0 1.414l2.83 2.83a1 1 0 0 0 1.414 0l1.243-1.243v1.756a1 1 0 0 0 1 1h4a1 1 0 0 0 1-1v-1.756l1.243 1.243a1 1 0 0 0 1.414 0l2.83-2.83a1 1 0 0 0 0-1.414l-1.243-1.243h1.756a1 1 0 0 0 1-1v-4a1 1 0 0 0 -1-1h-1.756l1.243-1.243a1 1 0 0 0 0-1.414l-2.83-2.83a1 1 0 0 0 -1.414 0l-1.243 1.243v-1.756a1 1 0 0 0 -1-1h-4a1 1 0 0 0 -1 1v1.756l-1.243-1.243a1 1 0 0 0 -1.414 0l-2.83 2.83a1 1 0 0 0 0 1.414l1.243 1.243h-1.756a1 1 0 0 0 -1 1v4a1 1 0 0 0 1 1zm1-4h2.35a1 1 0 0 0 .958-.713 2.239 2.239 0 0 1 .167-.4 1 1 0 0 0 -.178-1.173l-1.663-1.664 1.416-1.416 1.663 1.666a1 1 0 0 0 1.171.179 2.262 2.262 0 0 1 .4-.168 1 1 0 0 0 .716-.961v-2.35h2v2.35a1 1 0 0 0 .713.958 2.262 2.262 0 0 1 .4.168 1 1 0 0 0 1.171-.179l1.663-1.663 1.416 1.416-1.663 1.663a1 1 0 0 0 -.179 1.171 2.262 2.262 0 0 1 .168.4 1 1 0 0 0 .961.716h2.35v2h-2.35a1 1 0 0 0 -.958.713 2.262 2.262 0 0 1 -.168.4 1 1 0 0 0 .179 1.171l1.663 1.663-1.416 1.419-1.663-1.666a1 1 0 0 0 -1.171-.179 2.262 2.262 0 0 1 -.4.168 1 1 0 0 0 -.716.961v2.35h-2v-2.35a1 1 0 0 0 -.713-.958 2.262 2.262 0 0 1 -.4-.168 1 1 0 0 0 -1.171.179l-1.666 1.663-1.416-1.416 1.666-1.663a1 1 0 0 0 .178-1.173 2.239 2.239 0 0 1 -.167-.4 1 1 0 0 0 -.961-.714h-2.35z"/><path d="m26 28v3.753c-.144.057-.283.114-.419.174l-2.654-2.654a1 1 0 0 0 -1.414 0l-4.24 4.24a1 1 0 0 0 0 1.414l2.654 2.654c-.06.136-.117.275-.174.419h-3.753a1 1 0 0 0 -1 1v5h-7v-28h2a1 1 0 0 0 0-2h-3a1 1 0 0 0 -1 1v30a1 1 0 0 0 1 1h50a1 1 0 0 0 1-1v-30a1 1 0 0 0 -1-1h-2a1 1 0 0 0 0 2h1v28h-11v-5a1 1 0 0 0 -1-1h-3.753c-.057-.144-.114-.283-.174-.419l2.654-2.654a1 1 0 0 0 0-1.414l-4.24-4.24a1.029 1.029 0 0 0 -1.414 0l-2.654 2.654c-.136-.06-.275-.117-.419-.174v-3.753a1 1 0 0 0 -1-1h-6a1 1 0 0 0 -1 1zm0 14a4 4 0 0 1 8 0 3.943 3.943 0 0 1 -.544 2h-6.912a3.943 3.943 0 0 1 -.544-2zm2-9.54v-3.46h4v3.46a1 1 0 0 0 .694.952 8.259 8.259 0 0 1 1.445.605 1 1 0 0 0 1.188-.17l2.453-2.453 2.826 2.826-2.453 2.453a1 1 0 0 0 -.17 1.188 8.259 8.259 0 0 1 .605 1.445 1 1 0 0 0 .952.694h3.46v4h-7.346a6 6 0 1 0 -11.308 0h-7.346v-4h3.46a1 1 0 0 0 .952-.694 8.259 8.259 0 0 1 .605-1.445 1 1 0 0 0 -.17-1.188l-2.453-2.453 2.826-2.826 2.453 2.453a1 1 0 0 0 1.188.17 8.259 8.259 0 0 1 1.445-.605 1 1 0 0 0 .694-.952z"/><path d="m43 22a4 4 0 1 0 -4-4 4 4 0 0 0 4 4zm0-6a2 2 0 1 1 -2 2 2 2 0 0 1 2-2z"/><path d="m13 15h1.756l-1.243 1.243a1 1 0 0 0 0 1.414l2.83 2.83a1 1 0 0 0 1.414 0l1.243-1.243v1.756a1 1 0 0 0 1 1h4a1 1 0 0 0 1-1v-1.756l1.243 1.243a1 1 0 0 0 1.414 0l2.83-2.83a1 1 0 0 0 0-1.414l-1.243-1.243h1.756a1 1 0 0 0 1-1v-4a1 1 0 0 0 -1-1h-1.756l1.243-1.243a1 1 0 0 0 0-1.414l-2.83-2.83a1 1 0 0 0 -1.414 0l-1.243 1.243v-1.756a1 1 0 0 0 -1-1h-4a1 1 0 0 0 -1 1v1.756l-1.243-1.243a1 1 0 0 0 -1.414 0l-2.83 2.83a1 1 0 0 0 0 1.414l1.243 1.243h-1.756a1 1 0 0 0 -1 1v4a1 1 0 0 0 1 1zm1-4h2.35a1 1 0 0 0 .958-.713 2.239 2.239 0 0 1 .167-.4 1 1 0 0 0 -.175-1.174l-1.666-1.663 1.416-1.416 1.663 1.666a1 1 0 0 0 1.171.179 2.262 2.262 0 0 1 .4-.168 1 1 0 0 0 .716-.961v-2.35h2v2.35a1 1 0 0 0 .713.958 2.262 2.262 0 0 1 .4.168 1 1 0 0 0 1.174-.176l1.663-1.666 1.416 1.416-1.666 1.663a1 1 0 0 0 -.179 1.171 2.262 2.262 0 0 1 .168.4 1 1 0 0 0 .961.716h2.35v2h-2.35a1 1 0 0 0 -.958.713 2.262 2.262 0 0 1 -.168.4 1 1 0 0 0 .179 1.171l1.663 1.663-1.416 1.419-1.663-1.666a1 1 0 0 0 -1.171-.179 2.262 2.262 0 0 1 -.4.168 1 1 0 0 0 -.716.961v2.35h-2v-2.35a1 1 0 0 0 -.713-.958 2.262 2.262 0 0 1 -.4-.168 1 1 0 0 0 -1.171.179l-1.666 1.663-1.416-1.416 1.666-1.663a1 1 0 0 0 .178-1.173 2.239 2.239 0 0 1 -.167-.4 1 1 0 0 0 -.961-.714h-2.35z"/><path d="m22 16a4 4 0 1 0 -4-4 4 4 0 0 0 4 4zm0-6a2 2 0 1 1 -2 2 2 2 0 0 1 2-2z"/></g></g></svg>