<svg height="512pt" viewBox="-39 0 512 512.2" width="512pt" xmlns="http://www.w3.org/2000/svg"><path d="m370.699219 265c0 84.941406-68.859375 153.800781-153.800781 153.800781-84.941407 0-153.796876-68.859375-153.796876-153.800781s68.855469-153.800781 153.796876-153.800781c84.941406 0 153.800781 68.859375 153.800781 153.800781zm0 0" fill="#acdef9"/><path d="m216.898438 418.800781c34.800781 0 68.402343-11.800781 95.601562-33.402343l-2.601562-46c-.398438-8-6-14.796876-13.796876-16.796876l-36.203124-9-21.796876-10.800781-7.402343 21c-.398438 1.199219-1.597657 2-2.800781 2h-22.398438c-1.398438 0-2.398438-.800781-2.800781-2l-7.398438-21-21.800781 10.800781-36.199219 9c-7.800781 2-13.402343 8.796876-13.800781 16.796876l-2.601562 46c27.601562 21.601562 61.203124 33.402343 96 33.402343zm0 0" fill="#e9e9ea"/><path d="m265.699219 208.601562c-1 0-2 0-3.199219.199219 0 1 .199219 2 .199219 3.199219v32c0 1 0 2-.199219 3.199219 10.601562 1.800781 20.601562-5.398438 22.199219-16 1.800781-10.597657-5.398438-20.597657-16-22.199219-1-.199219-2-.398438-3-.398438zm0 0" fill="#f9d0b4"/><path d="m169.699219 244.199219v-32c0-1 0-2.199219.199219-3.199219-10.597657-1.800781-20.597657 5.398438-22.398438 16s5.398438 20.601562 16 22.398438c2.199219.402343 4.398438.402343 6.398438 0-.199219-1.199219-.199219-2.199219-.199219-3.199219zm0 0" fill="#f9d0b4"/><path d="m223.101562 187.601562c-17 21.398438-42 18.398438-50.402343 16.597657-1.398438-.199219-2.597657.601562-3 2v.402343 37.398438c0 25.601562 20.800781 46.398438 46.402343 46.398438 25.597657 0 46.398438-20.796876 46.398438-46.398438v-41.398438c0-.203124 0-.402343 0-.800781 0-1.402343-1-2.402343-2.398438-2.402343-19.402343-.597657-29.402343-8.199219-33.402343-12-1-1-2.597657-1-3.597657 0 .199219.203124.199219.203124 0 .203124zm0 0" fill="#f9d0b4"/><path d="m216.300781 290.601562c-7.199219 0-14.402343-1.601562-20.800781-5v17.199219l7.398438 21c.402343 1.199219 1.601562 2 2.800781 2h22.402343c1.398438 0 2.398438-.800781 2.796876-2l7.402343-21v-18c-6.800781 3.800781-14.402343 5.800781-22 5.800781zm0 0" fill="#f9d0b4"/><path d="m166.699219 208.601562c1 0 2 0 3 .199219v-2.199219c0-1.402343 1.199219-2.402343 2.601562-2.402343h.398438c8.402343 1.800781 33.402343 4.800781 50.402343-16.597657.796876-1 2.398438-1.203124 3.597657-.402343 0 0 .199219.199219.199219.199219 4 3.800781 14 11.402343 33.402343 12 1.398438 0 2.398438 1.203124 2.398438 2.402343v.800781 6.199219c6-1 12 1 16.402343 5.199219v-34.800781c0-14.597657-12-26.597657-26.601562-26.597657-4.800781 0-9.398438 1.398438-13.601562 3.796876-4.796876-8-13.398438-13-22.796876-13h-13.601562c-26.398438 0-48 21.601562-48 48v21.601562c3.601562-2.800781 7.800781-4.398438 12.199219-4.398438zm0 0" fill="#6d6c6b"/><path d="m216.898438 53.398438c8.203124 0 15 6.800781 15 15 0 8.203124-6.796876 15-15 15 100.402343.203124 181.800781 81.402343 181.800781 181.800781 0 8.199219 6.800781 15 15 15s15-6.800781 15-15c0-117-94.800781-211.597657-211.800781-211.800781zm0 0" fill="#e9e9ea"/><path d="m413.699219 280.199219c-8.199219 0-15-6.800781-15-15 0 46.601562-17.800781 91.402343-49.800781 125.199219-5.796876 6-5.597657 15.402343.203124 21.203124 6 5.796876 15.398438 5.597657 21.199219-.203124.199219-.199219.199219-.199219.398438-.398438 37.402343-39.398438 58.199219-91.398438 58-145.800781 0 8.402343-6.597657 15-15 15zm0 0" fill="#ea4647"/><path d="m349.5 411.601562c-6-5.601562-6.199219-15.203124-.601562-21.203124-34.199219 36.402343-82 57-132 56.800781-8.199219 0-15 6.800781-15 15s6.800781 15 15 15c58.203124 0 113.800781-23.800781 153.800781-66.199219-5.800781 6-15.199219 6.199219-21.199219.601562zm0 0" fill="#ffae2c"/><path d="m201.898438 462c0-8.199219 6.800781-15 15-15-100.398438-.199219-181.796876-81.398438-181.796876-181.800781 0-8.199219-6.800781-15-15-15-8.203124 0-15 6.800781-15 15 .199219 117 95 211.800781 211.796876 211.800781-8.199219 0-15-6.601562-15-15zm0 0" fill="#6dcc6d"/><path d="m216.898438 53.398438c-117 .203124-211.796876 94.800781-211.796876 211.800781 0-8.199219 6.796876-15 15-15 8.199219 0 15 6.800781 15 15 .199219-100.398438 81.398438-181.800781 181.796876-181.800781 8.203124 0 15-6.796876 15-15 0-8.199219-6.796876-15-15-15zm0 0" fill="#55acd5"/><path d="m402.101562 58.398438h-17.203124c-2.796876 0-5-2.199219-5-5 0-2.796876 2.203124-5 5-5h17.402343c2.800781 0 5 2.203124 5 5 0 2.800781-2.402343 5-5.199219 5zm0 0" fill="#55acd5"/><path d="m393.5 67c-2.800781 0-5-2.199219-5-5v-17.398438c0-2.800781 2.199219-5 5-5s5 2.199219 5 5v17.398438c0 2.800781-2.199219 5-5 5zm0 0" fill="#55acd5"/><path d="m50.5 438.800781c-.398438 0-.601562 0-1-.199219-.398438 0-.601562-.203124-1-.203124-.398438-.199219-.601562-.199219-.800781-.398438s-.597657-.398438-.800781-.601562c-2-2-2-5.199219 0-7 .203124-.199219.402343-.398438.800781-.597657.601562-.402343 1.199219-.601562 1.800781-.800781s1.398438-.199219 2 0 1.199219.398438 1.800781.800781c.199219.199219.597657.398438.800781.597657 1 1 1.398438 2.203124 1.398438 3.601562v1c0 .398438-.199219.601562-.199219 1-.199219.398438-.199219.601562-.402343.800781-.199219.199219-.398438.597657-.597657.800781-.199219.199219-.402343.398438-.800781.597657-.199219.199219-.601562.402343-.800781.402343-.398438.199219-.597657.199219-1 .199219-.597657-.199219-1 0-1.199219 0zm0 0" fill="#ffcd29"/><path d="m344.101562 58.398438c-1.402343 0-2.601562-.597657-3.601562-1.398438-.199219-.199219-.398438-.398438-.601562-.800781-.199219-.199219-.398438-.597657-.398438-.800781-.199219-.398438-.199219-.597657-.199219-1 0-.398438 0-.597657-.199219-1 0-.398438 0-.597657.199219-1 0-.398438.199219-.597657.199219-1 .199219-.398438.199219-.597657.398438-.796876.203124-.203124.402343-.601562.601562-.800781 1.199219-1.199219 2.800781-1.601562 4.601562-1.402343.398438 0 .597657.203124 1 .203124.398438.199219.597657.199219.796876.398438.203124.199219.601562.398438.800781.601562.199219.199219.402343.398438.601562.796876.199219.203124.398438.601562.398438.800781.199219.199219.199219.601562.199219 1 0 .402343 0 .601562.203124 1 0 .402343 0 .601562-.203124 1 0 .402343-.199219.601562-.199219 1-.199219.402343-.199219.601562-.398438.800781s-.402343.601562-.601562.800781-.398438.398438-.800781.597657c-.199219.203124-.597657.402343-.796876.402343-.402343.199219-.601562.199219-1 .199219-.203124.398438-.601562.398438-1 .398438zm0 0" fill="#f75c64"/><g fill="#231f20"><path d="m265.699219 252.398438c-1.398438 0-2.597657-.199219-3.800781-.398438-2.597657-.398438-4.398438-2.601562-4.199219-5.199219 0-1 .199219-1.800781.199219-2.800781v-32c0-1 0-1.800781-.199219-2.800781-.199219-2.597657 1.601562-4.800781 4.199219-5.199219 13.402343-2.199219 25.800781 6.800781 28 20.199219 2.203124 13.402343-6.796876 25.800781-20.199219 28-1.398438.199219-2.800781.199219-4 .199219zm2-38.597657v28.597657c7.800781-1.199219 13.402343-8.398438 12.199219-16.199219-.796876-6.398438-5.796876-11.398438-12.199219-12.398438zm0 0"/><path d="m166.699219 252.398438c-13.398438 0-24.398438-11-24.398438-24.398438s11-24.398438 24.398438-24.398438c1.402343 0 2.601562.199219 4 .398438 2.601562.398438 4.402343 2.601562 4.199219 5.199219 0 1-.199219 1.800781-.199219 2.800781v32c0 1 0 1.800781.199219 2.800781.203124 2.597657-1.597657 4.800781-4.199219 5.199219-1.398438.398438-2.597657.398438-4 .398438zm-2-38.597657c-7.800781 1.199219-13.398438 8.398438-12.199219 16.199219.800781 6.398438 5.800781 11.398438 12.199219 12.199219zm0 0"/><path d="m216.300781 295.601562c-28.402343 0-51.402343-23-51.402343-51.402343v-37.398438c0-4.199219 3.402343-7.402343 7.402343-7.402343.597657 0 1 0 1.597657.203124 8.800781 1.796876 30.601562 4 45.601562-14.800781 2.601562-3.199219 7.199219-3.800781 10.601562-1.199219l.597657.597657c3 3 12.199219 10.199219 30 10.601562 4 .199219 7.199219 3.398438 7.199219 7.398438v42.199219c-.199219 28.203124-23.199219 51.203124-51.597657 51.203124zm-41.601562-85.800781v34.398438c0 23 18.601562 41.402343 41.601562 41.402343s41.398438-18.601562 41.398438-41.402343v-39.800781c-16.800781-1-27-7-32.398438-11.597657-16.800781 19.398438-40.199219 18.597657-50.601562 17zm48.402343-22.199219"/><path d="m279.101562 219.199219c-1.203124 0-2.601562-.597657-3.402343-1.398438-2.597657-2.601562-6.199219-4-10-4-.800781 0-1.398438 0-2.199219.199219-2.800781.398438-5.199219-1.398438-5.800781-4.199219 0-.199219 0-.601562 0-.800781v-4.601562c-16.800781-1-27-7-32.398438-11.597657-17 19.398438-40.402343 18.398438-50.800781 16.800781-.398438 2.796876-3 4.597657-5.800781 4.199219-4-.601562-8 .398438-11.199219 3-2.199219 1.800781-5.398438 1.398438-7-.800781-.800781-.800781-1-2-1-3.199219v-21.402343c0-29.199219 23.800781-53 53-53h13.601562c9.398438 0 18.398438 4.203124 24.398438 11.601562 3.800781-1.601562 7.800781-2.398438 12-2.398438 17.398438 0 31.601562 14.199219 31.601562 31.597657v35c0 2.601562-2.203124 5-5 5zm-11.402343-15.398438c2.199219.199219 4.402343.597657 6.402343 1.398438v-26c0-11.800781-9.601562-21.597657-21.402343-21.597657-4 0-7.800781 1-11.199219 3-2.398438 1.398438-5.398438.597657-6.800781-1.800781-3.800781-6.601562-11-10.601562-18.398438-10.601562h-13.601562c-23.800781 0-43 19.199219-43 43v13.402343c1.800781-.601562 3.800781-1 5.800781-1 1.398438-3.203124 5-5 8.398438-4.402343 8.800781 1.800781 30.601562 4 45.601562-14.800781 2.601562-3.199219 7.199219-3.796876 10.601562-1.199219.199219.199219.398438.402343.597657.601562 3 3 12.199219 10.199219 30 10.597657 4 .203124 7.199219 3.402343 7.199219 7.402343zm0 0"/><path d="m216.898438 356.601562c-2.796876 0-5-2.203124-5-5 0-1.402343.601562-2.601562 1.402343-3.601562 2-1.800781 5-1.800781 7 0 2 2 2 5.199219 0 7-.800781 1-2 1.601562-3.402343 1.601562zm0 0"/><path d="m216.898438 381.398438c-2.796876 0-5-2.199219-5-5 0-1.398438.601562-2.597657 1.402343-3.597657 2-1.800781 5-1.800781 7 0 2 2 2 5.199219 0 7-.800781 1-2 1.597657-3.402343 1.597657zm0 0"/><path d="m216.898438 406.199219c-2.796876 0-5-2.199219-5-5 0-1.398438.601562-2.597657 1.402343-3.597657 2-1.800781 5-1.800781 7 0 2 2 2 5.199219 0 7-.800781 1-2 1.597657-3.402343 1.597657zm0 0"/><path d="m271.300781 413.800781c-2.800781 0-5-2.199219-5-5v-32.402343c0-2.796876 2.199219-5 5-5s5 2.203124 5 5v32.402343c0 2.800781-2.199219 5-5 5zm0 0"/><path d="m161.101562 413.398438c-2.800781 0-5-2.199219-5-5v-32c0-2.796876 2.199219-5 5-5 2.796876 0 5 2.203124 5 5v32c0 2.601562-2.203124 5-5 5zm0 0"/><path d="m228.101562 331h-22.402343c-3.398438 0-6.398438-2.199219-7.597657-5.398438l-7.402343-21c-.199219-.601562-.199219-1-.199219-1.601562v-17.199219c0-2.800781 2.199219-5 5-5 .800781 0 1.601562.199219 2.199219.597657 5.800781 3 12 4.402343 18.402343 4.402343 6.796876 0 13.597657-1.800781 19.796876-5 2.402343-1.402343 5.402343-.402343 6.800781 2 .402343.800781.601562 1.597657.601562 2.398438v18c0 .601562 0 1.199219-.199219 1.601562l-7.402343 21c-1.199219 3-4.199219 5.199219-7.597657 5.199219zm-21-10h19.597657l6.601562-19v-9.398438c-10.601562 3.796876-22.199219 3.796876-32.800781.398438v9zm0 0"/><path d="m413.699219 285.199219c-11 0-20-9-20-20-.199219-97.597657-79.199219-176.800781-176.800781-176.800781-2.796876 0-5-2.199219-5-5 0-2.796876 2.203124-5 5-5 5.601562 0 10-4.398438 10-10 0-5.597657-4.398438-10-10-10-2.796876 0-5-2.199219-5-5 0-2.796876 2.203124-5 5-5 119.800781.203124 216.800781 97.203124 216.800781 216.800781 0 11-8.800781 20-20 20zm-180-206c96.199219 8.800781 169.800781 89.402343 170 186.199219 0 5.601562 4.402343 10 10 10 5.601562 0 10-4.398438 10-10-.199219-107.398438-82.199219-196.796876-189.199219-206.199219 3.398438 6.199219 3.199219 13.800781-.800781 20zm0 0"/><path d="m359.699219 420.601562c-11 0-20-9-20-20 0-5.203124 2-10 5.402343-13.800781 31.199219-32.800781 48.597657-76.402343 48.398438-121.601562 0-2.800781 2.199219-5 5-5s5 2.199219 5 5c0 5.601562 4.398438 10 10 10s10-4.398438 10-10c0-2.800781 2.199219-5 5-5s5 2.199219 5 5c0 55.601562-21.199219 109-59.398438 149.199219-3.601562 4-8.800781 6.203124-14.402343 6.203124zm43.402343-138.601562c-3.800781 41.800781-21.601562 81.199219-50.402343 111.601562-3.800781 4-3.398438 10.398438.601562 14.199219 4 3.597657 10.199219 3.398438 13.800781-.402343 32.199219-34 52-77.796876 56-124.597657-6.402343 3.398438-14 3.199219-20-.800781zm0 0"/><path d="m216.898438 482c-11 0-20-9-20-20s9-20 20-20c48.601562.199219 95-19.800781 128.402343-55.199219 2-2 5-2 7 0 2 1.800781 2 5 .199219 7-3.800781 4-3.601562 10.398438.398438 14.199219s10.402343 3.601562 14.203124-.398438c1.796876-2 5-2.203124 7-.203124s2.199219 5 .199219 7c-41 43.203124-97.800781 67.800781-157.402343 67.601562zm123.402343-76.398438c-34 30.199219-78 46.796876-123.402343 46.597657-5.597657 0-10 4.402343-10 10 0 5.601562 4.402343 10 10 10 50.601562 0 99.601562-18.597657 137.402343-52.199219-3-.800781-6-2.601562-8.199219-4.800781-2.800781-2.597657-4.800781-6-5.800781-9.597657zm0 0"/><path d="m216.898438 482c-119.796876 0-216.796876-97-216.796876-216.800781 0-11 9-20 20-20s20 9 20 20c0 97.601562 79.199219 176.800781 176.796876 176.800781 2.800781 0 5 2.199219 5 5s-2.199219 5-5 5c-5.597657 0-10 4.398438-10 10s4.402343 10 10 10c2.800781 0 5 2.199219 5 5s-2.199219 5-5 5zm-196.796876-226.800781c-5.601562 0-10 4.402343-10 10 .199219 107.402343 82.199219 196.800781 189.199219 206.199219-3.402343-6.398438-3-14 .800781-20-96.203124-8.796876-169.800781-89.398438-170-186.199219 0-5.398438-4.601562-10-10-10zm0 0"/><path d="m35.101562 270.199219c-2.800781 0-5-2.199219-5-5 0-5.597657-4.402343-10-10-10-5.601562 0-10 4.402343-10 10 0 2.800781-2.203124 5-5 5-2.800781 0-5-2.199219-5-5 0-119.597657 97-216.597657 216.796876-216.800781 11 0 20 9 20 20s-9 20-20 20c-97.597657.203124-176.796876 79.203124-176.796876 176.800781 0 2.800781-2.402343 5-5 5zm-15-25c3.796876 0 7.597657 1 10.796876 3.199219 8.800781-96.199219 89.402343-169.796876 186.203124-170 5.597657 0 10-4.398438 10-10 0-5.597657-4.402343-10-10-10-107.402343.203124-196.800781 82.203124-206.203124 189.203124 2.800781-1.601562 6-2.402343 9.203124-2.402343zm0 0"/><path d="m216.898438 423.800781c-87.597657 0-158.796876-71-158.796876-158.800781s71.199219-158.800781 158.796876-158.800781c87.601562 0 158.800781 71 158.800781 158.800781-.199219 87.601562-71.199219 158.601562-158.800781 158.800781zm0-307.601562c-82.199219 0-148.796876 66.601562-148.796876 148.800781s66.597657 148.800781 148.796876 148.800781c82.203124 0 148.800781-66.601562 148.800781-148.800781-.199219-82.199219-66.597657-148.601562-148.800781-148.800781zm0 0"/><path d="m216.898438 423.800781c-35.796876.199219-70.796876-12-98.796876-34.402343-1.203124-1-2-2.597657-1.800781-4.199219l2.597657-46c.601562-10.199219 7.601562-18.800781 17.601562-21.398438l35.601562-9 21.199219-10.402343c2.398438-1.199219 5.398438-.199219 6.597657 2.203124 0 .199219.203124.398438.203124.597657l6.796876 19.800781h19.601562l6.800781-19.800781c1-2.597657 3.800781-4 6.398438-3 .199219 0 .402343.199219.601562.199219l21.199219 10.402343 35.601562 9c10 2.398438 17 11.199219 17.597657 21.398438l2.601562 46c0 1.601562-.601562 3.199219-1.800781 4.199219-27.800781 22.402343-62.800781 34.402343-98.601562 34.402343zm-90.597657-40.800781c53.398438 41 127.597657 41 181 0l-2.402343-43.199219c-.398438-5.800781-4.398438-10.800781-10-12.199219l-36.199219-9c-.398438 0-.597657-.203124-1-.402343l-16.597657-8.199219-5.402343 15.601562c-1.199219 3.199219-4.199219 5.398438-7.597657 5.398438h-22.402343c-3.398438 0-6.398438-2.199219-7.597657-5.398438l-5.402343-15.601562-16.597657 8.199219c-.402343.199219-.601562.199219-1 .402343l-36.203124 9c-5.597657 1.398438-9.796876 6.398438-10 12.199219zm0 0"/><path d="m108.300781 58.398438h-16.601562c-2.800781 0-5-2.199219-5-5 0-2.796876 2.199219-5 5-5h16.601562c2.800781 0 5 2.203124 5 5 0 2.800781-2.199219 5-5 5zm0 0"/><path d="m347.898438 482h-16.597657c-2.800781 0-5-2.199219-5-5s2.199219-5 5-5h16.597657c2.800781 0 5 2.199219 5 5s-2.398438 5-5 5zm0 0"/><path d="m69.101562 58.398438h-36.601562c-2.800781 0-5-2.199219-5-5 0-2.796876 2.199219-5 5-5h36.800781c2.800781 0 5 2.203124 5 5 0 2.800781-2.402343 5-5.199219 5zm0 0"/></g><path d="m100.5 495c-8.199219-1.601562-14.398438-8-16-16 0-.199219-.199219-.398438-.398438-.398438-.203124 0-.203124.199219-.402343.398438-1.597657 8.199219-8 14.398438-16 16-.199219 0-.398438.199219-.398438.398438 0 .203124.199219.203124.398438.402343 8.199219 1.597657 14.402343 8 16 16 0 .199219.199219.398438.402343.398438.199219 0 .199219-.199219.398438-.398438 1.601562-8.199219 8-14.402343 16-16 .199219 0 .398438-.199219.398438-.402343 0-.398438-.199219-.398438-.398438-.398438zm0 0" fill="#f75c64"/><path d="m305.898438 16.398438c-8.199219-1.597657-14.398438-8-16-16 0-.199219-.199219-.398438-.398438-.398438s-.199219.199219-.398438.398438c-1.601562 8.203124-8 14.402343-16 16-.203124 0-.402343.203124-.402343.402343s.199219.199219.402343.398438c8.199219 1.601562 14.398438 8 16 16 0 .199219.199219.402343.398438.402343s.199219-.203124.398438-.402343c1.601562-8.199219 8-14.398438 16-16 .203124 0 .402343-.199219.402343-.398438-.199219-.402343-.199219-.402343-.402343-.402343zm0 0" fill="#ffcd29"/></svg>