<svg height="512" viewBox="0 0 128 128" width="512" xmlns="http://www.w3.org/2000/svg"><path d="m114.622 88.4h-3.222a24.056 24.056 0 0 0 -2.926-7.052l2.285-2.286a2.669 2.669 0 0 0 0-3.773l-4.234-4.235a2.733 2.733 0 0 0 -3.774 0l-2.285 2.286a24.039 24.039 0 0 0 -7.051-2.926v-3.232a2.671 2.671 0 0 0 -2.668-2.668h-5.99a2.671 2.671 0 0 0 -2.668 2.668v3.227a24.056 24.056 0 0 0 -7.052 2.926l-2.286-2.286a2.731 2.731 0 0 0 -3.772 0l-.845.845a29.872 29.872 0 0 0 -5.372-1.245 23.7 23.7 0 0 0 12.807-16.023 3.3 3.3 0 0 0 .929.149c2.451 0 4.37-2.528 4.37-5.756s-1.919-5.757-4.37-5.757c-.111 0-.22.013-.33.023v-18.485a9.448 9.448 0 0 0 -9.437-9.438h-1.771a31.061 31.061 0 0 0 -23.338-6.728c-26.891 3.322-26.916 26.874-26.913 27.112a1 1 0 0 0 1.788.6 31.616 31.616 0 0 1 4.243-4.446c.333-.258.667-.49.991-.7a28.39 28.39 0 0 0 -3.1 9.927 29 29 0 0 0 3.816 16.6 1 1 0 0 0 1.826-.333 41.088 41.088 0 0 1 1.227-4.31 3.909 3.909 0 0 0 3.119 1.691 3.3 3.3 0 0 0 .929-.149 23.7 23.7 0 0 0 12.815 16.024 30.01 30.01 0 0 0 -17.7 9.087.981.981 0 0 0 -.129.136 29.942 29.942 0 0 0 -8.156 20.555v20.172a3 3 0 0 0 3 3h71.364a2.672 2.672 0 0 0 2.668-2.668v-3.227a24.089 24.089 0 0 0 7.051-2.926l2.285 2.285a2.733 2.733 0 0 0 3.774 0l4.234-4.235a2.67 2.67 0 0 0 0-3.772l-2.285-2.287a24.024 24.024 0 0 0 2.931-7.05h3.227a2.671 2.671 0 0 0 2.668-2.668v-5.99a2.67 2.67 0 0 0 -2.673-2.662zm-31.865-5.959a12.64 12.64 0 1 1 5.989 24.212v-6.225a29.9 29.9 0 0 0 -5.989-17.987z" fill="#e6e7e8"/><path d="m57.362 67.494a8.865 8.865 0 0 1 -17.6 0 29.061 29.061 0 0 0 -26.388 28.934v20.172a2 2 0 0 0 2 2h68.373v-22.172a29.061 29.061 0 0 0 -26.385-28.934z" fill="#6dc9f7"/><path d="m53.731 67.366a22.649 22.649 0 0 1 -5.171.6 22.655 22.655 0 0 1 -5.171-.6h-.953a29.247 29.247 0 0 0 -4.691.379v50.855h21.63v-50.855a29.235 29.235 0 0 0 -4.69-.379z" fill="#d4fbff"/><path d="m37.745 115.601h21.63v3h-21.63z" fill="#fff"/><path d="m48.56 67.968a22.547 22.547 0 0 1 -8.872-1.809v.269a8.872 8.872 0 0 0 17.744 0v-.269a22.539 22.539 0 0 1 -8.872 1.809z" fill="#fff"/><path d="m72.5 40.262a2.545 2.545 0 0 0 -1.33.388v4.709a22.761 22.761 0 0 1 -.321 3.782 2.636 2.636 0 0 0 1.651.634c1.86 0 3.369-2.129 3.369-4.756s-1.51-4.757-3.369-4.757z" fill="#fff"/><path d="m25.952 45.359v-4.709a2.545 2.545 0 0 0 -1.33-.388c-1.861 0-3.369 2.13-3.369 4.757s1.508 4.756 3.369 4.756a2.641 2.641 0 0 0 1.651-.634 22.761 22.761 0 0 1 -.321-3.782z" fill="#fff"/><path d="m60.583 26.92v-.04s-15.341-5.148-27.483 3.312a28.464 28.464 0 0 0 -7.146 7.443v7.724a22.608 22.608 0 0 0 22.606 22.609 22.609 22.609 0 0 0 22.609-22.609v-10h-2.148a8.438 8.438 0 0 1 -8.438-8.439z" fill="#fff"/><path d="m62.731 12.358h-2.148v14.562a8.438 8.438 0 0 0 8.438 8.438h2.148v-14.558a8.438 8.438 0 0 0 -8.438-8.442z" fill="#ffd7e5"/><path d="m60.583 26.88s-15.341-5.148-27.483 3.312c-10.639 7.41-13.8 23-13.8 23a28.237 28.237 0 0 1 -3.667-15.975c.565-6.342 4.586-12.337 4.586-12.337a14.663 14.663 0 0 0 -4.086 2.228 32.507 32.507 0 0 0 -4.417 4.625s-.285-22.856 26.029-26.106a30.186 30.186 0 0 1 22.838 6.731z" fill="#ffd7e5"/><path d="m112.29 93.052v-5.989a1.667 1.667 0 0 0 -1.668-1.668h-4.03a23.183 23.183 0 0 0 -3.4-8.191l2.854-2.854a1.669 1.669 0 0 0 0-2.359l-4.235-4.235a1.669 1.669 0 0 0 -2.359 0l-2.852 2.854a23.183 23.183 0 0 0 -8.191-3.4v-4.03a1.668 1.668 0 0 0 -1.668-1.668h-5.989a1.668 1.668 0 0 0 -1.668 1.668v4.03a23.183 23.183 0 0 0 -8.191 3.4l-2.853-2.854a1.669 1.669 0 0 0 -2.359 0l-4.235 4.235a1.667 1.667 0 0 0 0 2.359l2.854 2.85a23.185 23.185 0 0 0 -3.4 8.2h-4.03a1.668 1.668 0 0 0 -1.67 1.663v5.989a1.668 1.668 0 0 0 1.668 1.668h4.032a23.185 23.185 0 0 0 3.4 8.191l-2.854 2.853a1.667 1.667 0 0 0 0 2.359l4.235 4.235a1.667 1.667 0 0 0 2.359 0l2.853-2.854a23.185 23.185 0 0 0 8.191 3.4v4.03a1.668 1.668 0 0 0 1.668 1.668h5.989a1.668 1.668 0 0 0 1.668-1.668v-4.034a23.185 23.185 0 0 0 8.191-3.4l2.854 2.854a1.667 1.667 0 0 0 2.359 0l4.235-4.235a1.669 1.669 0 0 0 0-2.359l-2.854-2.853a23.183 23.183 0 0 0 3.4-8.191h4.03a1.668 1.668 0 0 0 1.666-1.664zm-28.543 10.648a13.647 13.647 0 1 1 13.646-13.643 13.647 13.647 0 0 1 -13.646 13.643z" fill="#fa759e"/><g fill="#3a2c60"><path d="m37.745 84.5a1 1 0 0 0 -1 1v6.625a1 1 0 0 0 2 0v-6.625a1 1 0 0 0 -1-1z"/><path d="m38.586 39.934a2.261 2.261 0 1 0 2.261 2.266 2.261 2.261 0 0 0 -2.261-2.266z"/><path d="m58.535 39.934a2.261 2.261 0 1 0 2.265 2.266 2.261 2.261 0 0 0 -2.265-2.266z"/><path d="m48.56 53.258a3.576 3.576 0 0 0 3.572-3.572v-1.506a1 1 0 0 0 -2 0v1.506a1.572 1.572 0 1 1 -3.143 0v-1.506a1 1 0 0 0 -2 0v1.506a3.576 3.576 0 0 0 3.571 3.572z"/><path d="m56.814 37.816 4.427.772a1.028 1.028 0 0 0 .173.015 1 1 0 0 0 .171-1.986l-4.427-.771a1 1 0 0 0 -.344 1.97z"/><path d="m39.963 35.846-4.427.771a1 1 0 0 0 .171 1.986 1.037 1.037 0 0 0 .173-.015l4.426-.772a1 1 0 1 0 -.343-1.97z"/><path d="m54.367 56.456a1 1 0 1 0 -1.594-1.208 5.551 5.551 0 0 1 -4.213 1.918 5.362 5.362 0 0 1 -4.2-1.9 1 1 0 0 0 -1.618 1.175 7.37 7.37 0 0 0 5.82 2.729 7.578 7.578 0 0 0 5.805-2.714z"/><path d="m83.747 75.411a14.647 14.647 0 1 0 14.646 14.646 14.663 14.663 0 0 0 -14.646-14.646zm-12.647 14.646a12.636 12.636 0 0 1 5.852-10.648 27.894 27.894 0 0 1 5.8 17.019v6.225a12.655 12.655 0 0 1 -11.652-12.596zm13.647 12.6v-6.229a29.89 29.89 0 0 0 -6-17.982 12.64 12.64 0 1 1 6 24.207z"/><path d="m110.623 84.394h-3.223a24.057 24.057 0 0 0 -2.926-7.051l2.286-2.286a2.669 2.669 0 0 0 0-3.773l-4.236-4.235a2.732 2.732 0 0 0 -3.772 0l-2.285 2.286a24.073 24.073 0 0 0 -7.053-2.926v-3.227a2.671 2.671 0 0 0 -2.668-2.668h-5.994a2.671 2.671 0 0 0 -2.668 2.668v3.227a24.045 24.045 0 0 0 -7.052 2.926l-2.285-2.286a2.733 2.733 0 0 0 -3.774 0l-.854.855a29.826 29.826 0 0 0 -5.377-1.248 23.7 23.7 0 0 0 12.827-16.03 3.309 3.309 0 0 0 .93.149c2.45 0 4.369-2.528 4.369-5.756s-1.919-5.757-4.369-5.757c-.111 0-.221.013-.33.023v-18.485a9.45 9.45 0 0 0 -9.439-9.438h-1.77a31.055 31.055 0 0 0 -23.338-6.728c-26.892 3.322-26.915 26.874-26.912 27.112a1 1 0 0 0 1.788.6 31.553 31.553 0 0 1 4.241-4.446c.333-.258.667-.49.991-.7a28.378 28.378 0 0 0 -3.1 9.926 29.011 29.011 0 0 0 3.816 16.6 1 1 0 0 0 1.826-.333 41.527 41.527 0 0 1 1.233-4.31 3.9 3.9 0 0 0 3.117 1.694 3.3 3.3 0 0 0 .929-.149 23.7 23.7 0 0 0 12.814 16.022 30.1 30.1 0 0 0 -25.991 29.778v20.172a3 3 0 0 0 3 3h71.367a2.671 2.671 0 0 0 2.668-2.668v-3.227a24.1 24.1 0 0 0 7.053-2.926l2.285 2.285a2.668 2.668 0 0 0 3.772 0l4.236-4.235a2.67 2.67 0 0 0 0-3.772l-2.286-2.287a24.035 24.035 0 0 0 2.931-7.05h3.228a2.672 2.672 0 0 0 2.668-2.668v-5.99a2.672 2.672 0 0 0 -2.673-2.668zm-53.752 11.326h1.5v21.88h-19.626v-21.349a1 1 0 0 0 -2 0v21.349h-5.4v-27.4a15.856 15.856 0 0 0 -8.345-13.979 28.017 28.017 0 0 1 13.747-7.259v12.449a1 1 0 0 0 2 0v-12.793c.063-.008.128-.013.191-.021a9.863 9.863 0 0 0 19.246.008c.065.008.129.014.194.023v15.766h-1.5a2.671 2.671 0 0 0 -2.678 2.668v5.99a2.671 2.671 0 0 0 2.671 2.668zm21.308 21.88h-10.408v-3.94a2.528 2.528 0 0 0 .976-.6l2.285-2.285a24.083 24.083 0 0 0 7.052 2.926v3.227a2.634 2.634 0 0 0 .095.672zm-12.408 0h-5.4v-9.23a2.632 2.632 0 0 0 .363.46l4.234 4.235a2.52 2.52 0 0 0 .8.529zm-5.4-12.083v-8.81a24.036 24.036 0 0 0 2.648 6.063l-2.285 2.287a2.6 2.6 0 0 0 -.358.461zm-19.578-37.868a23.531 23.531 0 0 0 15.535 0 7.861 7.861 0 0 1 -15.535 0zm19.583 6.951a2.659 2.659 0 0 0 .363.461l2.285 2.286a24.062 24.062 0 0 0 -2.648 6.064zm0-2.851v-2.79c.727.15 1.441.335 2.147.541l-1.784 1.784a2.659 2.659 0 0 0 -.363.461zm12.124-30.487c1.284 0 2.369 1.72 2.369 3.757 0 2.33-1.429 4.261-2.932 3.616a23.6 23.6 0 0 0 .233-3.276v-4.048a1.431 1.431 0 0 1 .33-.049zm-2.331-20.462v13.558h-1.148a7.447 7.447 0 0 1 -7.438-7.438v-13.562h1.147a7.447 7.447 0 0 1 7.439 7.442zm-51.192 29.586a26.975 26.975 0 0 1 -2.355-13.08c.534-6 4.382-11.811 4.421-11.87a1 1 0 0 0 -1.132-1.51 15.63 15.63 0 0 0 -4.4 2.392 22.315 22.315 0 0 0 -2.5 2.363c1.015-6.146 5.457-19.666 24.857-22.061a29.551 29.551 0 0 1 21.715 6.2v12.729c-4.06-1.064-16.588-3.47-27.056 3.822-8.299 5.78-12.143 16.167-13.55 21.015zm3.478-3.886a47.121 47.121 0 0 1 2.439-5.2c.019 0 .039 0 .058.008v4.048a23.755 23.755 0 0 0 .232 3.276c-1.166.504-2.284-.547-2.729-2.132zm4.5-1.138v-7.4a27.2 27.2 0 0 1 6.718-6.951c10.207-7.11 22.971-4.2 25.949-3.374a9.444 9.444 0 0 0 9.4 8.72h1.148v9a21.609 21.609 0 1 1 -43.217 0zm-12.581 71.238v-20.172a27.928 27.928 0 0 1 7.172-18.7 13.863 13.863 0 0 1 7.8 12.477v27.4h-13.972a1 1 0 0 1 -1-1.005zm96.917-23.549a.669.669 0 0 1 -.668.668h-4.031a1 1 0 0 0 -.981.8 22.056 22.056 0 0 1 -3.251 7.837 1 1 0 0 0 .127 1.26l2.854 2.854a.669.669 0 0 1 0 .944l-4.236 4.235a.683.683 0 0 1 -.944 0l-2.854-2.849a1 1 0 0 0 -1.258-.127 22.121 22.121 0 0 1 -7.839 3.253 1 1 0 0 0 -.8.98v4.03a.669.669 0 0 1 -.668.668h-5.99a.669.669 0 0 1 -.668-.668v-4.036a1 1 0 0 0 -.8-.98 22.113 22.113 0 0 1 -7.838-3.252 1 1 0 0 0 -1.259.126l-2.853 2.854a.686.686 0 0 1 -.946 0l-4.234-4.235a.669.669 0 0 1 0-.944l2.854-2.854a1 1 0 0 0 .127-1.26 22.084 22.084 0 0 1 -3.252-7.838 1 1 0 0 0 -.981-.8h-4.03a.669.669 0 0 1 -.668-.668v-5.99a.669.669 0 0 1 .668-.668h4.028a1 1 0 0 0 .981-.8 22.092 22.092 0 0 1 3.252-7.838 1 1 0 0 0 -.127-1.259l-2.854-2.854a.67.67 0 0 1 0-.945l4.234-4.235a.686.686 0 0 1 .946 0l2.853 2.854a1 1 0 0 0 1.26.127 22.068 22.068 0 0 1 7.837-3.252 1 1 0 0 0 .8-.98v-4.03a.669.669 0 0 1 .668-.668h5.989a.669.669 0 0 1 .668.668v4.03a1 1 0 0 0 .8.98 22.122 22.122 0 0 1 7.839 3.252 1 1 0 0 0 1.258-.127l2.854-2.854a.683.683 0 0 1 .944 0l4.236 4.235a.67.67 0 0 1 0 .945l-2.851 2.86a1 1 0 0 0 -.127 1.259 22.064 22.064 0 0 1 3.251 7.837 1 1 0 0 0 .981.8h4.031a.669.669 0 0 1 .668.668z"/></g></svg>