<?xml version="1.0" encoding="UTF-8" standalone="no"?>
<svg
   xmlns:dc="http://purl.org/dc/elements/1.1/"
   xmlns:cc="http://creativecommons.org/ns#"
   xmlns:rdf="http://www.w3.org/1999/02/22-rdf-syntax-ns#"
   xmlns:svg="http://www.w3.org/2000/svg"
   xmlns="http://www.w3.org/2000/svg"
   xmlns:sodipodi="http://sodipodi.sourceforge.net/DTD/sodipodi-0.dtd"
   xmlns:inkscape="http://www.inkscape.org/namespaces/inkscape"
   version="1.1"
   x="0px"
   y="0px"
   viewBox="0 0 80 80.000031"
   id="svg4521"
   sodipodi:docname="wh-logo1.svg"
   width="80"
   height="80.000031"
   inkscape:version="0.92.4 (5da689c313, 2019-01-14)">
  <metadata
     id="metadata4527">
    <rdf:RDF>
      <cc:Work
         rdf:about="">
        <dc:format>image/svg+xml</dc:format>
        <dc:type
           rdf:resource="http://purl.org/dc/dcmitype/StillImage" />
        <dc:title></dc:title>
      </cc:Work>
    </rdf:RDF>
  </metadata>
  <defs
     id="defs4525" />
  <sodipodi:namedview
     pagecolor="#ffffff"
     bordercolor="#666666"
     borderopacity="1"
     objecttolerance="10"
     gridtolerance="10"
     guidetolerance="10"
     inkscape:pageopacity="0"
     inkscape:pageshadow="2"
     inkscape:window-width="1366"
     inkscape:window-height="706"
     id="namedview4523"
     showgrid="false"
     inkscape:zoom="1.888"
     inkscape:cx="40"
     inkscape:cy="24.283653"
     inkscape:window-x="-8"
     inkscape:window-y="-8"
     inkscape:window-maximized="1"
     inkscape:current-layer="svg4521" />
  <g
     transform="translate(-9.9999995,-962.36217)"
     id="g4515">
    <path
       style="color:#000000;text-indent:0;text-transform:none;direction:ltr;baseline-shift:baseline;display:inline;overflow:visible;visibility:visible;fill:#000000;fill-opacity:1;fill-rule:evenodd;stroke:none;enable-background:accumulate"
       d="m 50,962.36217 c -22.109179,0 -40.0000005,17.8809 -40.0000005,40.00003 0,8.3417 2.5438615,16.0577 7.0625005,22.6875 a 2.000005,2.000005 0 0 1 0.25,1.7187 l -4.0625,13.5938 13.3125,-4.5938 a 2.000005,2.000005 0 0 1 1.71875,0.2188 c 6.23554,4.046 13.70031,6.375 21.71875,6.375 22.119651,0 40,-17.8804 40,-40 0,-22.11973 -17.880349,-40.00003 -40,-40.00003 z m -16.375,17.4375 7.28125,12.0313 -3.03125,3 a 2.000005,2.000005 0 0 0 -0.3125,2.4062 c 4.625821,8.01063 10.106681,14.24273 17.78125,17.62503 a 2.000005,2.000005 0 0 0 2.21875,-0.4062 l 3.21875,-3.2188 11.75,7.3438 c -1.301089,2.9282 -2.99725,4.6716 -4.9375,5.6874 -2.24743,1.1768 -4.992439,1.3996 -8.125,0.75 -6.265109,-1.2991 -13.832879,-6.223 -20,-12.5312 -6.167119,-6.3081 -10.9396,-13.97873 -12.15625,-20.21883 -0.60832,-3.12 -0.33958,-5.807 0.8125,-7.9374 0.99198,-1.8343 2.67698,-3.4047 5.5,-4.5313 z"
       marker="none"
       visibility="visible"
       display="inline"
       overflow="visible"
       id="path4513"
       inkscape:connector-curvature="0" />
  </g>
</svg>
